<svg xmlns="http://www.w3.org/2000/svg" viewBox="0 0 143.82 34.93"><defs><style>.a{font-size:19px;fill:#08583e;font-family:AvenirNextCondensed-Bold, Avenir Next Condensed;font-weight:700;}.b{letter-spacing:-0.02em;}.c{letter-spacing:0em;}.d{letter-spacing:-0.04em;}.e{letter-spacing:0em;}.f{font-size:8px;font-family:AvenirNextCondensed-UltraLight, Avenir Next Condensed;font-weight:100;}.g{letter-spacing:-0.01em;}.h{fill:#1a793e;}.h,.i{stroke:#fff;stroke-miterlimit:10;}.i{fill:#b2cfb3;}</style></defs><title>Logo Mega de hoje megadehoje</title><text class="a" transform="translate(33.24 18.53)">MEG<tspan class="b" x="33.8" y="0">A</tspan><tspan class="c" x="43.78" y="0" xml:space="preserve"> DE H</tspan><tspan class="d" x="82.67" y="0">O</tspan><tspan class="e" x="93.61" y="0">JE</tspan></text><text class="f" transform="translate(53.28 25.93)"><tspan class="g">R</tspan><tspan x="3.47" y="0">esultados da mega-sena</tspan><tspan x="11.1" y="7">e loteria nacional</tspan></text><path class="h" d="M16.51,5.71v10.8H5.71a5.22,5.22,0,0,1,0-10.43h.37V5.71a5.22,5.22,0,0,1,10.43,0Z"/><path class="i" d="M17,5.71v10.8h10.8a5.22,5.22,0,0,0,0-10.43h-.37V5.71A5.22,5.22,0,0,0,17,5.71Z"/><path class="i" d="M16.51,27.86V17.06H5.71a5.22,5.22,0,0,0,0,10.43h.37v.37a5.22,5.22,0,0,0,10.43,0Z"/><path class="h" d="M17,27.86V17.06h10.8a5.22,5.22,0,0,1,0,10.43h-.37v.37a5.22,5.22,0,0,1-10.43,0Z"/></svg>