<svg xmlns="http://www.w3.org/2000/svg" xmlns:xlink="http://www.w3.org/1999/xlink" viewBox="0 0 322 184"><defs><style>.a{fill:url(#a);}.b{opacity:0.28;}.b,.d,.e,.f,.h,.i,.j,.k,.l,.m,.n{isolation:isolate;}.c{fill:url(#b);}.d{font-size:38px;}.d,.o{fill:#1a793e;}.d,.i,.j,.k,.l,.m{font-family:Roboto-Bold, Roboto;}.d,.e,.f,.i,.j,.k,.l,.m{font-weight:700;}.e,.f{font-size:43px;fill:#fff;font-family:Arial-BoldMT, Arial;}.f,.k,.m{stroke:#08583e;}.f,.k,.m,.o,.p{stroke-miterlimit:10;}.g{letter-spacing:-0.04em;}.i{font-size:12px;fill:#b4f1ff;}.j,.k,.l,.m{font-size:15px;}.k,.m{fill:none;}.l,.m{letter-spacing:-0.03em;}.n{font-size:2px;fill:#0a41ff;font-family:ArialNarrow, Arial Narrow;}.o,.p{stroke:#fff;}.p{fill:#b2cfb3;}</style><linearGradient id="a" x1="322" y1="3560" x2="0" y2="3560" gradientTransform="translate(0 -3468)" gradientUnits="userSpaceOnUse"><stop offset="0" stop-color="#1a793e"/><stop offset="1" stop-color="#91bd99"/></linearGradient><linearGradient id="b" x1="145" y1="3562.25" x2="0" y2="3562.25" gradientTransform="translate(0 -3468)" gradientUnits="userSpaceOnUse"><stop offset="0" stop-color="#fff"/><stop offset="1" stop-color="#cfe7d2"/></linearGradient></defs><title>mega-sena-2364-megadehoje</title><rect class="a" width="322" height="184"/><image class="b" width="153" height="48" transform="translate(0.12 73.21) scale(0.99)" xlink:href="253B203C1C8D6984.png"/><rect class="c" y="74.5" width="145" height="39.5"/><text class="d" transform="translate(18.53 107)">#2364</text><text class="e" transform="translate(21.76 52.6)">MEGA-SE</text><text class="f" transform="translate(21.76 52.6)">MEGA-SEN<tspan class="g" x="231.73" y="0">A</tspan></text><text class="h"/><text class="h"/><text class="h"/><text class="h"/><text class="i" transform="translate(233 82)">@megadehoje</text><text class="i" transform="translate(233 101.01)">#megadehoje</text><text class="j" transform="translate(120.04 16.57)">RESU</text><text class="k" transform="translate(120.04 16.57)">RESU</text><text class="j" transform="translate(157.14 16.57)">L</text><text class="k" transform="translate(157.14 16.57)">L</text><text class="l" transform="translate(163.77 16.57)">T</text><text class="m" transform="translate(163.77 16.57)">T</text><text class="j" transform="translate(172.17 16.57)">ADO</text><text class="k" transform="translate(172.17 16.57)">ADO</text><text class="n" transform="translate(119.25 112.62)">Mega de Hoje - megadehoje.com</text><path d="M138.8,167l.1-9.2h-.1l-2.3,9.2h-2.1l-2.2-9.2h-.1l.1,9.2h-2.8V153.5h3.8l2.2,8.7h.1l2.1-8.7h4.1V167Z"/><path d="M144.1,167V153.5h6.5v2.7H147v2.6h3.3v2.5H147v2.9h3.8v2.7h-6.7Z"/><path d="M159.6,167a7.61,7.61,0,0,1-2.1.3,4.79,4.79,0,0,1-4-2,9.06,9.06,0,0,1-1.1-2.2,9.25,9.25,0,0,1-.4-2.9,9.67,9.67,0,0,1,.4-2.9,5.54,5.54,0,0,1,1-2.2,4.28,4.28,0,0,1,1.6-1.4,4.06,4.06,0,0,1,2.1-.5,4.56,4.56,0,0,1,2.3.5,4.43,4.43,0,0,1,1.5,1.2l-1.6,2.2a2,2,0,0,0-1.9-.9,2,2,0,0,0-1.1.3,2.36,2.36,0,0,0-.8.9,3.26,3.26,0,0,0-.4,1.3,12.85,12.85,0,0,0,0,3.2,5,5,0,0,0,.4,1.3,1.76,1.76,0,0,0,.8.9,2,2,0,0,0,2.1.1v-2.5H157V159h4.1v7.2A5.3,5.3,0,0,1,159.6,167Z"/><path d="M169.2,167l-.6-2.5h-3L165,167h-3l3.3-13.5h3.8l3.2,13.5Zm-2-10.5h0l-1.2,5.7h2.3Z"/><path d="M186.4,160.3a13.33,13.33,0,0,1-.3,2.8,5.12,5.12,0,0,1-1,2.1,5.52,5.52,0,0,1-1.7,1.4,7,7,0,0,1-2.5.5h-3.8V153.6h3.8a5.34,5.34,0,0,1,2.5.5,3.91,3.91,0,0,1,1.7,1.4,5.8,5.8,0,0,1,1,2.1A11.76,11.76,0,0,1,186.4,160.3Zm-3,0a5.66,5.66,0,0,0-.7-3.1,2.23,2.23,0,0,0-1.8-1h-.7v8.1h.7a2.23,2.23,0,0,0,1.8-1A6,6,0,0,0,183.4,160.3Z"/><path d="M188.3,167V153.5h6.5v2.7h-3.6v2.6h3.3v2.5h-3.3v2.9H195v2.7h-6.7Z"/><path d="M206.7,167v-5.6h-3.1V167h-3V153.5h3v5.1h3.1v-5.1h3V167Z"/><path d="M221.9,160.2a9.25,9.25,0,0,1-.4,2.9,5.54,5.54,0,0,1-1,2.2,4.28,4.28,0,0,1-1.6,1.4,4.66,4.66,0,0,1-4.3,0,3.64,3.64,0,0,1-1.6-1.4,6.25,6.25,0,0,1-1-2.2,9.67,9.67,0,0,1-.4-2.9,9.25,9.25,0,0,1,.4-2.9,6.25,6.25,0,0,1,1-2.2,4.28,4.28,0,0,1,1.6-1.4,4.53,4.53,0,0,1,5.9,1.4,6.25,6.25,0,0,1,1,2.2A10.12,10.12,0,0,1,221.9,160.2Zm-3.1,0a8.6,8.6,0,0,0-.1-1.6,6.47,6.47,0,0,0-.4-1.3,4.7,4.7,0,0,0-.6-.9,1.5,1.5,0,0,0-1.8,0,1.46,1.46,0,0,0-.6.9,6.47,6.47,0,0,0-.4,1.3,12.85,12.85,0,0,0,0,3.2,5,5,0,0,0,.4,1.3l.6.9a1.5,1.5,0,0,0,1.8,0,1.46,1.46,0,0,0,.6-.9,6.47,6.47,0,0,0,.4-1.3,8.08,8.08,0,0,0,.1-1.6Z"/><path d="M228.3,166.1a3.43,3.43,0,0,1-3,1.2,4.07,4.07,0,0,1-2.4-.8,3.6,3.6,0,0,1-1.3-2.1l2.5-1.1a2,2,0,0,0,.4.8,1,1,0,0,0,1.3.2l.3-.3a6.75,6.75,0,0,0,.2-1.4v-9h3v9.2A7.9,7.9,0,0,1,228.3,166.1Z"/><path d="M231.5,167V153.5H238v2.7h-3.6v2.6h3.3v2.5h-3.3v2.9h3.8v2.7h-6.7Z"/><path d="M151.3,174.4l-1.2-2.9h-.9v2.9H149v-5.7h1.1a.6.6,0,0,1,.4.1.52.52,0,0,1,.4.2c.1.1.2.3.3.4a1.48,1.48,0,0,1,.1.7,2,2,0,0,1-.1.7,1.38,1.38,0,0,1-.3.4.52.52,0,0,1-.4.2c-.1,0-.3.1-.4.1l1.2,2.9Zm0-4.3a1.27,1.27,0,0,0-.1-.6c-.1-.1-.2-.3-.3-.4a.52.52,0,0,0-.4-.2c-.1,0-.3-.1-.4-.1h-.9v2.5h.9a1.41,1.41,0,0,0,1.2-1.2Z"/><path d="M152.4,172.4a2.2,2.2,0,0,0,.1.8,1.42,1.42,0,0,0,.2.6,1.38,1.38,0,0,0,.3.4.75.75,0,0,0,.5.1.76.76,0,0,0,.5-.2,2.19,2.19,0,0,0,.3-.5l.1.1a1,1,0,0,1-.4.5.73.73,0,0,1-.6.2.75.75,0,0,1-.5-.1.78.78,0,0,1-.4-.4,1.42,1.42,0,0,1-.2-.6,2.77,2.77,0,0,1-.1-.9,2.2,2.2,0,0,1,.1-.8,1.85,1.85,0,0,1,.2-.7.78.78,0,0,1,.4-.4c.2-.1.3-.2.5-.2a.75.75,0,0,1,.5.1c.1.1.3.2.3.4a1.42,1.42,0,0,1,.2.6c0,.2.1.5.1.7v.2l-2.1.1Zm2-.1a1.7,1.7,0,0,0-.1-.7.76.76,0,0,0-.2-.5c-.1-.1-.2-.3-.3-.4a.6.6,0,0,0-.4-.1.76.76,0,0,0-.5.2c-.1.1-.2.3-.3.4s-.1.4-.2.6a.9.9,0,0,1-.1.5Z"/><path d="M157,173.4a1.88,1.88,0,0,1-.2.8.91.91,0,0,1-.7.3.87.87,0,0,1-.9-.6l.1-.1a.76.76,0,0,0,.8.6.55.55,0,0,0,.5-.3,1.45,1.45,0,0,0,.2-.7.6.6,0,0,0-.1-.4c0-.1-.1-.2-.2-.3s-.2-.1-.3-.2l-.3-.1c-.1,0-.2-.1-.3-.1s-.2-.1-.2-.2a.37.37,0,0,1-.1-.3v-.4a.6.6,0,0,1,.1-.4c0-.1.1-.2.2-.3s.2-.2.3-.2a1,1,0,0,1,.9.1,1.38,1.38,0,0,1,.3.4H157a.75.75,0,0,0-.7-.5.76.76,0,0,0-.5.2,1.42,1.42,0,0,0-.2.6v.3a.35.35,0,0,0,.1.2l.2.2.3.1c.1,0,.2.1.3.1s.2.1.3.2.2.2.2.3Z"/><path d="M160,173.4a1.23,1.23,0,0,1-.4.8,1.07,1.07,0,0,1-1.2.2,1.38,1.38,0,0,1-.3-.4.75.75,0,0,1-.1-.5v-3.1h.2v3c0,.1.1.3.1.4s.1.2.2.3a.6.6,0,0,0,.4.1c.2,0,.3-.1.4-.1a1.38,1.38,0,0,0,.3-.4c.1-.2.2-.3.2-.5s.1-.4.1-.6v-2.2h.2v2.9c0,.1,0,.2-.1.1l.1.4v.5H160v-.9Z"/><path d="M161.5,174.4v-6h.2v6Z"/><path d="M163.6,174.4a.37.37,0,0,1-.3-.1c-.1,0-.1-.1-.2-.2s-.1-.2-.1-.3v-3.3h-.5v-.2h.5v-1.1h.2v1.1h.7v.2h-.7v2.9a1.27,1.27,0,0,0,.1.6c.1.1.2.2.3.2h.2c.1,0,.1,0,.1-.1v.1C163.9,174.4,163.8,174.4,163.6,174.4Z"/><path d="M166.5,173.5v.9h-.2v-.9h0a1.23,1.23,0,0,1-.4.8c-.2.2-.4.3-.6.2a.37.37,0,0,1-.3-.1c-.1,0-.2-.1-.3-.2a.52.52,0,0,1-.2-.4.9.9,0,0,1-.1-.5,1.7,1.7,0,0,1,.1-.7.78.78,0,0,1,.4-.4c.1-.1.3-.1.5-.2h.8v-.3a2.39,2.39,0,0,0-.2-.9.71.71,0,0,0-.6-.3c-.2,0-.3,0-.4.1l-.3.3-.1-.1a.78.78,0,0,1,.4-.4.75.75,0,0,1,.5-.1.67.67,0,0,1,.7.4,2,2,0,0,1,.3,1.1Zm-.1-1.2h-.8a.76.76,0,0,0-.4.2l-.3.3a1.27,1.27,0,0,0-.1.6.6.6,0,0,0,.1.4c0,.1.1.2.2.3l.2.2c.1,0,.2,0,.2.1a.55.55,0,0,0,.5-.2,1.38,1.38,0,0,0,.3-.4,1.27,1.27,0,0,0,.1-.6,1.27,1.27,0,0,1,.1-.6Z"/><path d="M168.7,174.5a4.33,4.33,0,0,1-.5-.1c-.2-.1-.3-.3-.4-.4a1.42,1.42,0,0,1-.2-.6,2.49,2.49,0,0,1-.1-.8,2,2,0,0,1,.1-.8,1.42,1.42,0,0,1,.2-.6.78.78,0,0,1,.4-.4c.2-.1.3-.2.5-.1a.71.71,0,0,1,.6.3,2,2,0,0,1,.4.8h0v-3.1h.2v6h-.2v-.9h0c0,.3-.2.5-.4.8C169.2,174.4,169,174.5,168.7,174.5Zm1-2a2.2,2.2,0,0,0-.1-.8,1.42,1.42,0,0,0-.2-.6,1.38,1.38,0,0,0-.3-.4c-.1-.1-.3-.2-.4-.1s-.3.1-.4.1-.2.3-.3.4a1.42,1.42,0,0,0-.2.6c0,.3-.1.5-.1.8a2.2,2.2,0,0,0,.1.8,1.42,1.42,0,0,0,.2.6,1.38,1.38,0,0,0,.3.4.75.75,0,0,0,.9,0,1.38,1.38,0,0,0,.3-.4c.1-.2.1-.4.2-.6v-.8Z"/><path d="M173.4,172.5a2,2,0,0,1-.1.8,1.42,1.42,0,0,1-.2.6.78.78,0,0,1-.4.4.44.44,0,0,1-.5.1.75.75,0,0,1-.5-.1c-.2-.1-.3-.3-.4-.4a1.42,1.42,0,0,1-.2-.6,2.49,2.49,0,0,1-.1-.8,2,2,0,0,1,.1-.8,1.42,1.42,0,0,1,.2-.6.78.78,0,0,1,.4-.4.9.9,0,0,1,.5-.1.75.75,0,0,1,.5.1c.2.1.3.3.4.4a1.42,1.42,0,0,1,.2.6A2,2,0,0,1,173.4,172.5Zm-.2,0a2.2,2.2,0,0,0-.1-.8,1.42,1.42,0,0,0-.2-.6,1.38,1.38,0,0,0-.3-.4c-.1-.1-.3-.2-.4-.1s-.3.1-.4.1-.3.3-.3.4a1.42,1.42,0,0,0-.2.6c0,.3-.1.5-.1.8a2.2,2.2,0,0,0,.1.8,1.42,1.42,0,0,0,.2.6,1.38,1.38,0,0,0,.3.4.75.75,0,0,0,.9,0,1.38,1.38,0,0,0,.3-.4,1.42,1.42,0,0,0,.2-.6C173.2,173,173.3,172.7,173.2,172.5Z"/><path d="M176,173.4a1.88,1.88,0,0,1-.2.8.91.91,0,0,1-.7.3.87.87,0,0,1-.9-.6l.1-.1a.76.76,0,0,0,.8.6.55.55,0,0,0,.5-.3,1.45,1.45,0,0,0,.2-.7.6.6,0,0,0-.1-.4c0-.1-.1-.2-.2-.3s-.2-.1-.3-.2l-.3-.1c-.1,0-.2-.1-.3-.1s-.2-.1-.2-.2a.37.37,0,0,1-.1-.3v-.4a.6.6,0,0,1,.1-.4c0-.1.1-.2.2-.3s.2-.2.3-.2a.37.37,0,0,1,.3-.1.75.75,0,0,1,.5.1,1.38,1.38,0,0,1,.3.4v.1a.75.75,0,0,0-.7-.5.76.76,0,0,0-.5.2,1.42,1.42,0,0,0-.2.6v.3a.35.35,0,0,0,.1.2l.2.2.3.1c.1,0,.2.1.3.1s.2.1.3.2.2.2.2.3Z"/><path d="M179.4,174.5a4.33,4.33,0,0,1-.5-.1c-.2-.1-.3-.3-.4-.4a1.42,1.42,0,0,1-.2-.6,4.84,4.84,0,0,1,0-1.7,1.42,1.42,0,0,1,.2-.6.78.78,0,0,1,.4-.4c.2-.1.3-.2.5-.1a.71.71,0,0,1,.6.3,2,2,0,0,1,.4.8h0v-3.1h.2v6h-.2v-.9h0c0,.3-.2.5-.3.8C179.9,174.4,179.6,174.5,179.4,174.5Zm1-2a2.2,2.2,0,0,0-.1-.8,1.42,1.42,0,0,0-.2-.6,1.38,1.38,0,0,0-.3-.4.75.75,0,0,0-.9,0,1.38,1.38,0,0,0-.3.4c-.1.2-.1.4-.2.6s-.1.5-.1.8a2.2,2.2,0,0,0,.1.8,1.42,1.42,0,0,0,.2.6,1.38,1.38,0,0,0,.3.4c.1.1.3.2.4.1s.3,0,.4-.1a1.38,1.38,0,0,0,.3-.4c.1-.2.1-.4.2-.6a3.09,3.09,0,0,0,.2-.8Z"/><path d="M183.6,173.5v.9h-.2v-.9h0a1.23,1.23,0,0,1-.4.8c-.2.2-.4.3-.6.2a.37.37,0,0,1-.3-.1c-.1,0-.2-.1-.3-.2a.52.52,0,0,1-.2-.4.9.9,0,0,1-.1-.5,1.7,1.7,0,0,1,.1-.7.78.78,0,0,1,.4-.4c.1-.1.3-.1.5-.2h.8v-.3a2.39,2.39,0,0,0-.2-.9.71.71,0,0,0-.6-.3c-.2,0-.3,0-.4.1l-.3.3-.1-.1a.78.78,0,0,1,.4-.4.75.75,0,0,1,.5-.1.67.67,0,0,1,.7.4,2,2,0,0,1,.3,1.1Zm-.1-1.2h-.8a.76.76,0,0,0-.4.2l-.3.3a1.27,1.27,0,0,0-.1.6.6.6,0,0,0,.1.4c0,.1.1.2.2.3l.2.2c.1,0,.2,0,.2.1a.55.55,0,0,0,.5-.2,1.38,1.38,0,0,0,.3-.4,1.27,1.27,0,0,0,.1-.6v-.9Z"/><path d="M189.5,170.4a.9.9,0,0,1,.5.1,1.38,1.38,0,0,1,.3.4.9.9,0,0,1,.1.5v3.1h-.2v-3a.6.6,0,0,0-.1-.4c-.1-.1-.1-.2-.2-.3a.6.6,0,0,0-.4-.1c-.2,0-.3,0-.4.1a1.38,1.38,0,0,0-.3.4c-.1.2-.1.3-.2.5s-.1.4-.1.6v2.2h-.2v-3a.6.6,0,0,0-.1-.4c0-.1-.1-.2-.2-.3s-.2-.1-.4-.1-.3.1-.4.1a1.38,1.38,0,0,0-.3.4c-.1.2-.2.3-.2.5s-.1.4-.1.6v2.2h-.2v-4h.2v1h0a1.23,1.23,0,0,1,.4-.8.91.91,0,0,1,.7-.3.6.6,0,0,1,.4.1c.1.1.2.1.2.2s.1.2.1.4.1.3.1.4h0c0-.2.1-.3.1-.4s.1-.3.2-.4.2-.2.3-.2S189.3,170.4,189.5,170.4Z"/><path d="M191.6,172.4a2.2,2.2,0,0,0,.1.8,1.42,1.42,0,0,0,.2.6,1.38,1.38,0,0,0,.3.4.75.75,0,0,0,.5.1.76.76,0,0,0,.5-.2,2.19,2.19,0,0,0,.3-.5l.1.1a1,1,0,0,1-.4.5.73.73,0,0,1-.6.2.75.75,0,0,1-.5-.1.78.78,0,0,1-.4-.4,1.42,1.42,0,0,1-.2-.6,2.77,2.77,0,0,1-.1-.9,2.2,2.2,0,0,1,.1-.8,1.85,1.85,0,0,1,.2-.7.78.78,0,0,1,.4-.4c.2-.1.3-.2.5-.2a.75.75,0,0,1,.5.1c.1.1.3.2.3.4a1.42,1.42,0,0,1,.2.6v.9l-2,.1Zm2-.1a1.7,1.7,0,0,0-.1-.7.76.76,0,0,0-.2-.5c-.1-.1-.2-.3-.3-.4a.6.6,0,0,0-.4-.1.76.76,0,0,0-.5.2c-.1.1-.2.3-.3.4s-.1.4-.2.6v.5Z"/><path d="M196.7,173.5c0,.3-.2.5-.3.8a.91.91,0,0,1-.7.3,4.33,4.33,0,0,1-.5-.1c-.2-.1-.3-.3-.4-.4a1.42,1.42,0,0,1-.2-.6,4.84,4.84,0,0,1,0-1.7,1.42,1.42,0,0,1,.2-.6.78.78,0,0,1,.4-.4c.2-.1.3-.2.5-.1a.71.71,0,0,1,.6.3,2,2,0,0,1,.4.8h0v-.9h.2v4.6a1.85,1.85,0,0,1-.2.7.78.78,0,0,1-.4.4,1.27,1.27,0,0,1-1.2,0,1,1,0,0,1-.4-.5l.1-.1a1,1,0,0,0,.4.5,1.07,1.07,0,0,0,.6.2.75.75,0,0,0,.5-.1,1.38,1.38,0,0,0,.3-.4,1.27,1.27,0,0,0,.1-.6v-2.1Zm0-1a2.2,2.2,0,0,0-.1-.8,1.42,1.42,0,0,0-.2-.6,1.38,1.38,0,0,0-.3-.4.75.75,0,0,0-.9,0,1.38,1.38,0,0,0-.3.4c-.1.2-.1.4-.2.6a3.79,3.79,0,0,0,0,1.5,1.42,1.42,0,0,0,.2.6,1.38,1.38,0,0,0,.3.4c.1.1.3.2.4.1s.3,0,.4-.1a1.38,1.38,0,0,0,.3-.4c.1-.2.1-.4.2-.6a1,1,0,0,0,.2-.7Z"/><path d="M200,173.5v.9h-.2v-.9h0a1.23,1.23,0,0,1-.4.8.73.73,0,0,1-.6.2.37.37,0,0,1-.3-.1c-.1,0-.2-.1-.3-.2a.52.52,0,0,1-.2-.4.9.9,0,0,1-.1-.5,1.7,1.7,0,0,1,.1-.7.78.78,0,0,1,.4-.4c.1-.1.3-.1.5-.2h.8v-.3a2.39,2.39,0,0,0-.2-.9.71.71,0,0,0-.6-.3c-.2,0-.3,0-.4.1l-.3.3-.1-.1a.78.78,0,0,1,.4-.4.75.75,0,0,1,.5-.1.67.67,0,0,1,.7.4,2,2,0,0,1,.3,1.1Zm-.2-1.2H199a.76.76,0,0,0-.4.2l-.3.3a1.27,1.27,0,0,0-.1.6.6.6,0,0,0,.1.4c0,.1.1.2.2.3l.2.2c.1,0,.2,0,.2.1a.55.55,0,0,0,.5-.2,1.38,1.38,0,0,0,.3-.4,1.27,1.27,0,0,0,.1-.6,1.27,1.27,0,0,1,.1-.6v-.3Z"/><path d="M201,172.4v-.2h1v.2Z"/><path d="M204.4,173.4a1.88,1.88,0,0,1-.2.8.91.91,0,0,1-.7.3.87.87,0,0,1-.9-.6l.1-.1a.76.76,0,0,0,.8.6.55.55,0,0,0,.5-.3,1.45,1.45,0,0,0,.2-.7.6.6,0,0,0-.1-.4,1,1,0,0,0-.5-.4l-.3-.1c-.1,0-.2-.1-.3-.1s-.2-.1-.2-.2a.37.37,0,0,1-.1-.3v-.4a.6.6,0,0,1,.1-.4c0-.1.1-.2.2-.3s.2-.2.3-.2a.37.37,0,0,1,.3-.1.75.75,0,0,1,.5.1,1.38,1.38,0,0,1,.3.4l-.1.1a.75.75,0,0,0-.7-.5.76.76,0,0,0-.5.2,1.42,1.42,0,0,0-.2.6.37.37,0,0,0,.1.3.35.35,0,0,0,.1.2l.2.2c.1,0,.2.1.3.1l.3.1c.1.1.2.1.3.2s.1.2.2.3Q204.55,173.25,204.4,173.4Z"/><path d="M205.4,172.4a2.2,2.2,0,0,0,.1.8,1.42,1.42,0,0,0,.2.6,1.38,1.38,0,0,0,.3.4.75.75,0,0,0,.5.1.76.76,0,0,0,.5-.2,2.19,2.19,0,0,0,.3-.5l.1.1a1,1,0,0,1-.4.5.73.73,0,0,1-.6.2.75.75,0,0,1-.5-.1.78.78,0,0,1-.4-.4,1.42,1.42,0,0,1-.2-.6,2.77,2.77,0,0,1-.1-.9,2.2,2.2,0,0,1,.1-.8,1.85,1.85,0,0,1,.2-.7.78.78,0,0,1,.4-.4c.2-.1.3-.2.5-.2a.75.75,0,0,1,.5.1c.1.1.3.2.3.4a1.42,1.42,0,0,1,.2.6c0,.2.1.5.1.7v.2l-2.1.1Zm2-.1a1.7,1.7,0,0,0-.1-.7.76.76,0,0,0-.2-.5c-.1-.1-.2-.3-.3-.4a.6.6,0,0,0-.4-.1.76.76,0,0,0-.5.2c-.1.1-.2.3-.3.4s-.1.4-.2.6a.9.9,0,0,1-.1.5Z"/><path d="M208.8,171.5a1.23,1.23,0,0,1,.4-.8,1.07,1.07,0,0,1,1.2-.2,1.38,1.38,0,0,1,.3.4.9.9,0,0,1,.1.5v3.1h-.2v-3a.6.6,0,0,0-.1-.4c-.1-.1-.1-.2-.2-.3a.6.6,0,0,0-.4-.1c-.2,0-.3.1-.4.1a1.38,1.38,0,0,0-.3.4c-.1.2-.1.3-.2.5s-.1.4-.1.6v2.2h-.2v-3.9h.2v.5l-.1.4Z"/><path d="M213.8,173.5v.9h-.2v-.9h0a1.23,1.23,0,0,1-.4.8c-.2.2-.4.3-.6.2a.37.37,0,0,1-.3-.1c-.1,0-.2-.1-.3-.2a.52.52,0,0,1-.2-.4.9.9,0,0,1-.1-.5,1.7,1.7,0,0,1,.1-.7.78.78,0,0,1,.4-.4c.1-.1.3-.1.5-.2h.8v-.3a2.39,2.39,0,0,0-.2-.9.78.78,0,0,0-1-.2c-.1.1-.3.2-.3.3l-.1-.1a.78.78,0,0,1,.4-.4.75.75,0,0,1,.5-.1.67.67,0,0,1,.7.4,2,2,0,0,1,.3,1.1Zm-.2-1.2h-.8a.76.76,0,0,0-.4.2l-.3.3a1.27,1.27,0,0,0-.1.6.6.6,0,0,0,.1.4c0,.1.1.2.2.3l.2.2c.1,0,.2,0,.2.1a.55.55,0,0,0,.5-.2,1.38,1.38,0,0,0,.3-.4,1.27,1.27,0,0,0,.1-.6v-.9Z"/><path d="M160,179.4a2.2,2.2,0,0,0,.1.8,1.42,1.42,0,0,0,.2.6,1.38,1.38,0,0,0,.3.4.75.75,0,0,0,.5.1.76.76,0,0,0,.5-.2,2.19,2.19,0,0,0,.3-.5l.1.1a1,1,0,0,1-.4.5.73.73,0,0,1-.6.2.75.75,0,0,1-.5-.1.78.78,0,0,1-.4-.4,1.42,1.42,0,0,1-.2-.6,2.77,2.77,0,0,1-.1-.9,2.2,2.2,0,0,1,.1-.8,1.85,1.85,0,0,1,.2-.7.78.78,0,0,1,.4-.4.76.76,0,0,1,.5-.2.75.75,0,0,1,.5.1c.1.1.3.2.3.4a1.42,1.42,0,0,1,.2.6c0,.2.1.5.1.7v.2l-2.1.1Zm2-.1a1.7,1.7,0,0,0-.1-.7.76.76,0,0,0-.2-.5c-.1-.1-.2-.3-.3-.4a.6.6,0,0,0-.4-.1.76.76,0,0,0-.5.2c-.1.1-.2.3-.3.4s-.1.4-.2.6-.1.3-.1.5Z"/><path d="M164.6,181.4v-6h.2v6Z"/><path d="M168.3,179.5a2,2,0,0,1-.1.8,1.42,1.42,0,0,1-.2.6.78.78,0,0,1-.4.4.91.91,0,0,1-1,0c-.2-.1-.3-.3-.4-.4a1.42,1.42,0,0,1-.2-.6,4.84,4.84,0,0,1,0-1.7,1.42,1.42,0,0,1,.2-.6.78.78,0,0,1,.4-.4c.2-.1.3-.2.5-.1a4.33,4.33,0,0,1,.5.1c.2.1.3.3.4.4a1.42,1.42,0,0,1,.2.6A2.77,2.77,0,0,1,168.3,179.5Zm-.1,0a2.2,2.2,0,0,0-.1-.8,1.42,1.42,0,0,0-.2-.6,1.38,1.38,0,0,0-.3-.4c-.1-.1-.3-.2-.4-.1s-.3.1-.4.1-.3.2-.3.4a1.42,1.42,0,0,0-.2.6c0,.3-.1.5-.1.8a2.2,2.2,0,0,0,.1.8,1.42,1.42,0,0,0,.2.6,1.38,1.38,0,0,0,.3.4c.1.1.3.2.4.1s.3,0,.4-.1.3-.2.3-.4a1.42,1.42,0,0,0,.2-.6c0-.3.1-.6.1-.8Z"/><path d="M170,181.4a.37.37,0,0,1-.3-.1c-.1,0-.1-.1-.2-.2s-.1-.2-.1-.3v-3.3h-.5v-.2h.5v-1.1h.2v1.1h.7v.2h-.7v2.9a1.27,1.27,0,0,0,.1.6c.1.1.2.2.3.2h.2c.1,0,.1,0,.1-.1v.1C170.2,181.4,170.1,181.4,170,181.4Z"/><path d="M171.1,179.4a2.2,2.2,0,0,0,.1.8,1.42,1.42,0,0,0,.2.6,1.38,1.38,0,0,0,.3.4.75.75,0,0,0,.5.1.76.76,0,0,0,.5-.2,2.19,2.19,0,0,0,.3-.5l.1.1a1,1,0,0,1-.4.5.73.73,0,0,1-.6.2.75.75,0,0,1-.5-.1.78.78,0,0,1-.4-.4,1.42,1.42,0,0,1-.2-.6,2.77,2.77,0,0,1-.1-.9,2.2,2.2,0,0,1,.1-.8,1.85,1.85,0,0,1,.2-.7.78.78,0,0,1,.4-.4c.2-.1.3-.2.5-.2a.75.75,0,0,1,.5.1c.1.1.3.2.4.4a1.42,1.42,0,0,1,.2.6,1.7,1.7,0,0,0,.1.7v.2l-2.2.1Zm2-.1a1.7,1.7,0,0,0-.1-.7.76.76,0,0,0-.2-.5c-.1-.1-.2-.3-.3-.4a.6.6,0,0,0-.4-.1.76.76,0,0,0-.5.2c-.1.1-.3.3-.3.4s-.1.4-.2.6v.5Z"/><path d="M174.3,178.3v-.8h.2v1h0a1.23,1.23,0,0,1,.4-.8c.1-.2.3-.2.5-.2h.1v.2h-.1a.76.76,0,0,0-.4.2c-.1.1-.2.3-.3.4s-.1.4-.2.6-.1.4-.1.6v2h-.2v-2.9C174.3,178.4,174.3,178.4,174.3,178.3Z"/><path d="M176.2,176.3a.1.1,0,0,1-.1-.1.35.35,0,0,1-.1-.2c0-.1,0-.1.1-.1a.1.1,0,0,0,.1-.1.1.1,0,0,1,.1.1l.1.1c0,.1,0,.1-.1.2S176.3,176.3,176.2,176.3Zm0,5.1v-3.9h.2v3.9Z"/><path d="M179.4,180.5v.9h-.2v-.9h0a1.23,1.23,0,0,1-.4.8.73.73,0,0,1-.6.2.37.37,0,0,1-.3-.1c-.1,0-.2-.1-.3-.2a.52.52,0,0,1-.2-.4.9.9,0,0,1-.1-.5,1.7,1.7,0,0,1,.1-.7.78.78,0,0,1,.4-.4c.1-.1.3-.1.5-.2h.8v-.3a2.39,2.39,0,0,0-.2-.9.71.71,0,0,0-.6-.3c-.2,0-.3,0-.4.1l-.3.3-.1-.1a.78.78,0,0,1,.4-.4.75.75,0,0,1,.5-.1.67.67,0,0,1,.7.4,2,2,0,0,1,.3,1.1Zm-.2-1.2h-.8a.76.76,0,0,0-.4.2l-.3.3a1.27,1.27,0,0,0-.1.6.6.6,0,0,0,.1.4c0,.1.1.2.2.3l.2.2c.1,0,.2,0,.2.1.2,0,.3-.1.5-.2a1.38,1.38,0,0,0,.3-.4c.1-.2.1-.4.2-.6v-.6Z"/><path d="M182.4,178.5a1.23,1.23,0,0,1,.4-.8.91.91,0,0,1,.7-.3.75.75,0,0,1,.5.1,1.38,1.38,0,0,1,.3.4.75.75,0,0,1,.1.5v3.1h-.2v-3a.6.6,0,0,0-.1-.4c0-.1-.1-.2-.2-.3a.6.6,0,0,0-.4-.1c-.2,0-.3,0-.4.1a1.38,1.38,0,0,0-.3.4c-.1.2-.2.3-.2.5s-.1.4-.1.6v2.2h-.2v-3.9h.2v.5l-.1.4Z"/><path d="M187.4,180.5v.9h-.2v-.9h0a1.23,1.23,0,0,1-.4.8c-.2.2-.4.3-.6.2a.37.37,0,0,1-.3-.1c-.1,0-.2-.1-.3-.2a.52.52,0,0,1-.2-.4.9.9,0,0,1-.1-.5,1.7,1.7,0,0,1,.1-.7.78.78,0,0,1,.4-.4c.1-.1.3-.1.5-.2h.8v-.3a2.39,2.39,0,0,0-.2-.9.71.71,0,0,0-.6-.3c-.2,0-.3,0-.4.1l-.3.3-.1-.1a.78.78,0,0,1,.4-.4.75.75,0,0,1,.5-.1.67.67,0,0,1,.7.4,2,2,0,0,1,.3,1.1Zm-.2-1.2h-.8a.76.76,0,0,0-.4.2l-.3.3a1.27,1.27,0,0,0-.1.6.6.6,0,0,0,.1.4c0,.1.1.2.2.3l.2.2c.1,0,.2,0,.2.1a.55.55,0,0,0,.5-.2,1.38,1.38,0,0,0,.3-.4c.1-.2.1-.4.2-.6v-.6Z"/><path d="M190.4,181a1,1,0,0,1-.8.5.75.75,0,0,1-.5-.1c-.2-.1-.3-.3-.4-.4a1.42,1.42,0,0,1-.2-.6,4.84,4.84,0,0,1,0-1.7,1.42,1.42,0,0,1,.2-.6.78.78,0,0,1,.4-.4c.2-.1.3-.2.5-.1a.9.9,0,0,1,.5.1l.3.3-.1.1-.3-.3a.6.6,0,0,0-.4-.1c-.2,0-.3.1-.4.1s-.2.3-.3.4-.1.4-.2.6-.1.5-.1.8a2.2,2.2,0,0,0,.1.8,1.42,1.42,0,0,0,.2.6,1.38,1.38,0,0,0,.3.4c.1.1.3.2.4.1a.6.6,0,0,0,.4-.1l.3-.3Z"/><path d="M191.3,176.3a.1.1,0,0,1-.1-.1v-.3a.19.19,0,0,1,.3,0l.1.1c0,.1,0,.1-.1.2Zm-.1,5.1v-3.9h.2v3.9Z"/><path d="M194.9,179.5a2,2,0,0,1-.1.8,1.42,1.42,0,0,1-.2.6.78.78,0,0,1-.4.4c-.2.1-.3.2-.5.1a.75.75,0,0,1-.5-.1c-.2-.1-.3-.3-.4-.4a1.42,1.42,0,0,1-.2-.6,2.49,2.49,0,0,1-.1-.8,2,2,0,0,1,.1-.8,1.42,1.42,0,0,1,.2-.6.78.78,0,0,1,.4-.4.91.91,0,0,1,1,0c.2.1.3.3.4.4a1.42,1.42,0,0,1,.2.6C194.8,178.9,194.9,179.2,194.9,179.5Zm-.2,0a2.2,2.2,0,0,0-.1-.8,1.42,1.42,0,0,0-.2-.6,1.38,1.38,0,0,0-.3-.4c-.1-.1-.3-.2-.4-.1s-.3.1-.4.1a1.38,1.38,0,0,0-.3.4,1.42,1.42,0,0,0-.2.6c0,.3-.1.5-.1.8a2.2,2.2,0,0,0,.1.8,1.42,1.42,0,0,0,.2.6,1.38,1.38,0,0,0,.3.4.75.75,0,0,0,.9,0,1.38,1.38,0,0,0,.3-.4,1.42,1.42,0,0,0,.2-.6v-.8Z"/><path d="M196.2,178.5a1.23,1.23,0,0,1,.4-.8,1.07,1.07,0,0,1,1.2-.2,1.38,1.38,0,0,1,.3.4.9.9,0,0,1,.1.5v3.1H198v-3a.6.6,0,0,0-.1-.4c-.1-.1-.1-.2-.2-.3a.6.6,0,0,0-.4-.1c-.2,0-.3.1-.4.1a1.38,1.38,0,0,0-.3.4c-.1.2-.1.3-.2.5s-.1.4-.1.6v2.2H196v-3.9h.2v.9Z"/><path d="M201.2,180.5v.9H201v-.9h0a1.23,1.23,0,0,1-.4.8c-.2.2-.4.3-.6.2a.37.37,0,0,1-.3-.1c-.1,0-.2-.1-.3-.2a.52.52,0,0,1-.2-.4.9.9,0,0,1-.1-.5,1.7,1.7,0,0,1,.1-.7.78.78,0,0,1,.4-.4.76.76,0,0,1,.5-.2h.8v-.3a2.39,2.39,0,0,0-.2-.9.71.71,0,0,0-.6-.3c-.2,0-.3,0-.4.1s-.3.2-.3.3l-.1-.1a.78.78,0,0,1,.4-.4.75.75,0,0,1,.5-.1.67.67,0,0,1,.7.4,2,2,0,0,1,.3,1.1Zm-.2-1.2h-.8a.76.76,0,0,0-.4.2l-.3.3a1.27,1.27,0,0,0-.1.6.6.6,0,0,0,.1.4c0,.1.1.2.2.3l.2.2c.1,0,.2,0,.2.1a.55.55,0,0,0,.5-.2,1.38,1.38,0,0,0,.3-.4,1.27,1.27,0,0,0,.1-.6,1.27,1.27,0,0,1,.1-.6Z"/><path d="M202.4,181.4v-6h.2v6Z"/><path class="o" d="M111.6,154.2V165H100.8a5.2,5.2,0,1,1,0-10.4h.4v-.4a5.2,5.2,0,0,1,10.4-.4v.4Z"/><path class="p" d="M112,154.2V165h10.8a5.2,5.2,0,1,0,0-10.4h-.4v-.4a5.2,5.2,0,0,0-10.4-.4v.4Z"/><path class="p" d="M111.6,176.3V165.5H100.8a5.2,5.2,0,1,0,0,10.4h.4v.4a5.2,5.2,0,1,0,10.4.4v-.4Z"/><path class="o" d="M112,176.3V165.5h10.8a5.2,5.2,0,0,1,0,10.4h-.4v.4a5.2,5.2,0,1,1-10.4.4v-.4Z"/></svg>