<svg xmlns="http://www.w3.org/2000/svg" xmlns:xlink="http://www.w3.org/1999/xlink" viewBox="0 0 322 184"><defs><style>.cls-1{fill:url(#Gradiente_sem_nome);}.cls-2{opacity:0.28;}.cls-10,.cls-12,.cls-2,.cls-4,.cls-5,.cls-6,.cls-7,.cls-8,.cls-9{isolation:isolate;}.cls-3{fill:url(#Gradiente_sem_nome_2);}.cls-4{font-size:38px;}.cls-13,.cls-4{fill:#1a793e;}.cls-4,.cls-5,.cls-6,.cls-7,.cls-8,.cls-9{font-family:Arial-BoldMT, Arial;font-weight:700;}.cls-5,.cls-6,.cls-7,.cls-8{font-size:43px;}.cls-5,.cls-7{fill:#fff;}.cls-6,.cls-8{fill:none;stroke:#08583e;}.cls-13,.cls-14,.cls-6,.cls-8{stroke-miterlimit:10;}.cls-7,.cls-8{letter-spacing:-0.04em;}.cls-10,.cls-9{font-size:12px;}.cls-9{fill:#b4f1ff;}.cls-10{font-family:ArialMT, Arial;}.cls-11{letter-spacing:-0.07em;}.cls-12{font-size:2px;fill:#0a41ff;font-family:ArialNarrow, Arial Narrow;}.cls-13,.cls-14{stroke:#fff;}.cls-14{fill:#b2cfb3;}</style><linearGradient id="Gradiente_sem_nome" x1="322" y1="1405.89" x2="0" y2="1405.89" gradientTransform="translate(0 -1313.89)" gradientUnits="userSpaceOnUse"><stop offset="0" stop-color="#1a793e"/><stop offset="1" stop-color="#91bd99"/></linearGradient><linearGradient id="Gradiente_sem_nome_2" x1="145" y1="1408.14" x2="0" y2="1408.14" gradientTransform="translate(0 -1313.89)" gradientUnits="userSpaceOnUse"><stop offset="0" stop-color="#fff"/><stop offset="1" stop-color="#cfe7d2"/></linearGradient></defs><g id="Camada_2" data-name="Camada 2"><g id="Camada_1-2" data-name="Camada 1"><g id="Camada_2-2" data-name="Camada 2"><g id="Camada_1-2-2" data-name="Camada 1-2"><rect class="cls-1" width="322" height="184"/><image class="cls-2" width="153" height="48" transform="translate(0.12 73.21) scale(0.99)" xlink:href="1F330801E48EC591.png"/><rect class="cls-3" y="74.5" width="145" height="39.5"/><text class="cls-4" transform="translate(18.53 107)">#2375</text><text class="cls-5" transform="translate(21.76 52.6)">MEGA-SE</text><text class="cls-6" transform="translate(21.76 52.6)">MEGA-SE</text><text class="cls-5" transform="translate(225.38 52.6)">N</text><text class="cls-6" transform="translate(225.38 52.6)">N</text><text class="cls-7" transform="translate(256.49 52.6)">A</text><text class="cls-8" transform="translate(256.49 52.6)">A</text><text class="cls-9" transform="translate(233 82)">@megadehoje</text><text class="cls-9" transform="translate(233 101.01)">#megadehoje</text><text class="cls-10" transform="translate(131.98 14.37)">RESU<tspan class="cls-11" x="33.34" y="0">LT</tspan><tspan x="45.56" y="0">ADO</tspan></text><text class="cls-12" transform="translate(119.25 112.62)">Mega de Hoje - megadehoje.com</text><path d="M138.8,167l.1-9.2h-.1l-2.3,9.2h-2.1l-2.2-9.2h-.1l.1,9.2h-2.8V153.5h3.8l2.2,8.7h.1l2.1-8.7h4.1V167Z"/><path d="M144.1,167V153.5h6.5v2.7H147v2.6h3.3v2.5H147v2.9h3.8v2.7h-6.7Z"/><path d="M159.6,167a7.61,7.61,0,0,1-2.1.3,4.79,4.79,0,0,1-4-2,9.06,9.06,0,0,1-1.1-2.2,9.25,9.25,0,0,1-.4-2.9,9.67,9.67,0,0,1,.4-2.9,5.54,5.54,0,0,1,1-2.2,4.28,4.28,0,0,1,1.6-1.4,4.06,4.06,0,0,1,2.1-.5,4.56,4.56,0,0,1,2.3.5,4.43,4.43,0,0,1,1.5,1.2l-1.6,2.2a2,2,0,0,0-1.9-.9,2,2,0,0,0-1.1.3,2.36,2.36,0,0,0-.8.9,3.26,3.26,0,0,0-.4,1.3,12.85,12.85,0,0,0,0,3.2,5,5,0,0,0,.4,1.3,1.76,1.76,0,0,0,.8.9,2,2,0,0,0,2.1,0v-2.5H157V159h4.1v7.2A5.3,5.3,0,0,1,159.6,167Z"/><path d="M169.2,167l-.6-2.5h-3L165,167h-3l3.3-13.5h3.8l3.2,13.5Zm-2-10.5h0l-1.2,5.7h2.3Z"/><path d="M186.4,160.3a13.33,13.33,0,0,1-.3,2.8,5.12,5.12,0,0,1-1,2.1,5.52,5.52,0,0,1-1.7,1.4,7,7,0,0,1-2.5.5h-3.8V153.6h3.8a5.34,5.34,0,0,1,2.5.5,3.91,3.91,0,0,1,1.7,1.4,5.8,5.8,0,0,1,1,2.1A11.76,11.76,0,0,1,186.4,160.3Zm-3,0a5.66,5.66,0,0,0-.7-3.1,2.23,2.23,0,0,0-1.8-1h-.7v8.1h.7a2.23,2.23,0,0,0,1.8-1A6,6,0,0,0,183.4,160.3Z"/><path d="M188.3,167V153.5h6.5v2.7h-3.6v2.6h3.3v2.5h-3.3v2.9H195v2.7h-6.7Z"/><path d="M206.7,167v-5.6h-3.1V167h-3V153.5h3v5.1h3.1v-5.1h3V167Z"/><path d="M221.9,160.2a9.25,9.25,0,0,1-.4,2.9,5.54,5.54,0,0,1-1,2.2,4.28,4.28,0,0,1-1.6,1.4,4.53,4.53,0,0,1-5.9-1.4,6.25,6.25,0,0,1-1-2.2,9.67,9.67,0,0,1-.4-2.9,9.25,9.25,0,0,1,.4-2.9,6.25,6.25,0,0,1,1-2.2,4.28,4.28,0,0,1,1.6-1.4,4.53,4.53,0,0,1,5.9,1.4,6.25,6.25,0,0,1,1,2.2A10.12,10.12,0,0,1,221.9,160.2Zm-3.1,0a8.6,8.6,0,0,0-.1-1.6,6.47,6.47,0,0,0-.4-1.3,4.7,4.7,0,0,0-.6-.9,1.5,1.5,0,0,0-1.8,0,1.46,1.46,0,0,0-.6.9,6.47,6.47,0,0,0-.4,1.3,12.85,12.85,0,0,0,0,3.2,5,5,0,0,0,.4,1.3l.6.9a1.5,1.5,0,0,0,1.8,0,1.46,1.46,0,0,0,.6-.9,6.47,6.47,0,0,0,.4-1.3A8.08,8.08,0,0,0,218.8,160.2Z"/><path d="M228.3,166.1a3.43,3.43,0,0,1-3,1.2,3.66,3.66,0,0,1-3.7-2.9l2.5-1.1a2,2,0,0,0,.4.8,1,1,0,0,0,1.3.2l.3-.3a3.4,3.4,0,0,0,.2-1.4v-9h3v9.2A7.9,7.9,0,0,1,228.3,166.1Z"/><path d="M231.5,167V153.5H238v2.7h-3.6v2.6h3.3v2.5h-3.3v2.9h3.8v2.7h-6.7Z"/><path d="M151.3,174.4l-1.2-2.9h-.9v2.9H149v-5.7h1.1a.6.6,0,0,1,.4.1.52.52,0,0,1,.4.2c.1.1.2.3.3.4a1.48,1.48,0,0,1,.1.7,2,2,0,0,1-.1.7,1.38,1.38,0,0,1-.3.4.52.52,0,0,1-.4.2.6.6,0,0,1-.4.1l1.2,2.9Zm0-4.3a1.27,1.27,0,0,0-.1-.6c-.1-.1-.2-.3-.3-.4a.52.52,0,0,0-.4-.2c-.1,0-.3-.1-.4-.1h-.9v2.5h.9a1.41,1.41,0,0,0,1.2-1.2Z"/><path d="M152.4,172.4a2.2,2.2,0,0,0,.1.8,1.42,1.42,0,0,0,.2.6,1.38,1.38,0,0,0,.3.4.75.75,0,0,0,.5.1.76.76,0,0,0,.5-.2,2.19,2.19,0,0,0,.3-.5l.1.1a1,1,0,0,1-.4.5.73.73,0,0,1-.6.2.75.75,0,0,1-.5-.1.78.78,0,0,1-.4-.4,1.42,1.42,0,0,1-.2-.6,2.77,2.77,0,0,1-.1-.9,2.2,2.2,0,0,1,.1-.8,1.85,1.85,0,0,1,.2-.7.78.78,0,0,1,.4-.4c.2-.1.3-.2.5-.2a.75.75,0,0,1,.5.1c.1.1.3.2.3.4a1.42,1.42,0,0,1,.2.6c0,.2.1.5.1.7v.2l-2.1.1Zm2-.1a1.7,1.7,0,0,0-.1-.7.76.76,0,0,0-.2-.5c-.1-.1-.2-.3-.3-.4a.6.6,0,0,0-.4-.1c-.2,0-.3.1-.5.2s-.2.3-.3.4-.1.4-.2.6a.9.9,0,0,1-.1.5Z"/><path d="M157,173.4a1.88,1.88,0,0,1-.2.8.91.91,0,0,1-.7.3.87.87,0,0,1-.9-.6l.1-.1a.76.76,0,0,0,.8.6.55.55,0,0,0,.5-.3,1.45,1.45,0,0,0,.2-.7.6.6,0,0,0-.1-.4c0-.1-.1-.2-.2-.3s-.2-.1-.3-.2l-.3-.1c-.1,0-.2-.1-.3-.1s-.2-.1-.2-.2a.37.37,0,0,1-.1-.3v-.4a.6.6,0,0,1,.1-.4c0-.1.1-.2.2-.3s.2-.2.3-.2a1,1,0,0,1,.9.1,1.38,1.38,0,0,1,.3.4H157a.75.75,0,0,0-.7-.5.76.76,0,0,0-.5.2,1.42,1.42,0,0,0-.2.6v.3a.35.35,0,0,0,.1.2l.2.2.3.1c.1,0,.2.1.3.1s.2.1.3.2.2.2.2.3Z"/><path d="M160,173.4a1.23,1.23,0,0,1-.4.8,1.07,1.07,0,0,1-1.2.2,1.38,1.38,0,0,1-.3-.4.75.75,0,0,1-.1-.5v-3.1h.2v3a.6.6,0,0,0,.1.4c0,.1.1.2.2.3s.2.1.4.1.3-.1.4-.1a1.38,1.38,0,0,0,.3-.4c.3,0,.3-.2.4-.3v-2.8h.2v3.9H160v-1.1Z"/><path d="M161.5,174.4v-6h.2v6Z"/><path d="M163.6,174.4a.37.37,0,0,1-.3-.1c-.1,0-.1-.1-.2-.2s-.1-.2-.1-.3v-3.3h-.5v-.2h.5v-1.1h.2v1.1h.7v.2h-.7v2.9a1.27,1.27,0,0,0,.1.6c.1.1.2.2.3.2h.2c.1,0,.1,0,.1-.1v.1C163.9,174.4,163.8,174.5,163.6,174.4Z"/><path d="M166.5,173.5v.9h-.2v-.9h0a1.23,1.23,0,0,1-.4.8c-.2.2-.4.3-.6.2a.37.37,0,0,1-.3-.1c-.1,0-.2-.1-.3-.2a.52.52,0,0,1-.2-.4.9.9,0,0,1-.1-.5,1.7,1.7,0,0,1,.1-.7.78.78,0,0,1,.4-.4.76.76,0,0,1,.5-.2h.9v-.3a1.8,1.8,0,0,0-.2-1,.71.71,0,0,0-.6-.3c-.2,0-.3,0-.4.1l-.3.3-.1-.1a.78.78,0,0,1,.4-.4.75.75,0,0,1,.5-.1.67.67,0,0,1,.7.4,2,2,0,0,1,.3,1.1Zm-.1-1.2h-.8a.76.76,0,0,0-.4.2l-.3.3a1.27,1.27,0,0,0-.1.6.6.6,0,0,0,.1.4,1,1,0,0,0,.4.5c.1,0,.2,0,.2.1a.55.55,0,0,0,.5-.2,1.38,1.38,0,0,0,.3-.4,1.27,1.27,0,0,0,.1-.6,1.27,1.27,0,0,1,.1-.6Z"/><path d="M168.7,174.5a4.33,4.33,0,0,1-.5-.1c-.2-.1-.3-.3-.4-.4a1.42,1.42,0,0,1-.2-.6,2.49,2.49,0,0,1-.1-.8,2,2,0,0,1,.1-.8,1.42,1.42,0,0,1,.2-.6.78.78,0,0,1,.4-.4c.2-.1.3-.2.5-.1a.71.71,0,0,1,.6.3,2,2,0,0,1,.4.8h0v-3.1h.2v6h-.2v-.9h0c0,.3-.2.5-.4.8C169.2,174.4,169,174.5,168.7,174.5Zm1-2a2.2,2.2,0,0,0-.1-.8,1.42,1.42,0,0,0-.2-.6,1.38,1.38,0,0,0-.3-.4c-.1-.1-.3-.2-.4-.1s-.3.1-.4.1-.2.3-.3.4a1.42,1.42,0,0,0-.2.6c0,.3-.1.5-.1.8a2.2,2.2,0,0,0,.1.8,1.42,1.42,0,0,0,.2.6,1.38,1.38,0,0,0,.3.4.75.75,0,0,0,.9,0,1.38,1.38,0,0,0,.3-.4,1.42,1.42,0,0,0,.2-.6v-.8Z"/><path d="M173.4,172.5a2,2,0,0,1-.1.8,1.42,1.42,0,0,1-.2.6.78.78,0,0,1-.4.4.91.91,0,0,1-1,0c-.2-.1-.3-.3-.4-.4a1.42,1.42,0,0,1-.2-.6,2.49,2.49,0,0,1-.1-.8,2,2,0,0,1,.1-.8c.1-.2.1-.4.2-.6a.78.78,0,0,1,.4-.4.9.9,0,0,1,.5-.1,4.33,4.33,0,0,1,.5.1c.2.1.3.3.4.4a1.42,1.42,0,0,1,.2.6A2,2,0,0,1,173.4,172.5Zm-.2,0a2.2,2.2,0,0,0-.1-.8,1.42,1.42,0,0,0-.2-.6,1.38,1.38,0,0,0-.3-.4c-.1-.1-.3-.2-.4-.1s-.3.1-.4.1-.3.3-.3.4a1.42,1.42,0,0,0-.2.6c0,.3-.1.5-.1.8a2.2,2.2,0,0,0,.1.8,1.42,1.42,0,0,0,.2.6,1.38,1.38,0,0,0,.3.4.75.75,0,0,0,.9,0,1.38,1.38,0,0,0,.3-.4,1.42,1.42,0,0,0,.2-.6Z"/><path d="M176,173.4a1.88,1.88,0,0,1-.2.8.91.91,0,0,1-.7.3.87.87,0,0,1-.9-.6l.1-.1a.76.76,0,0,0,.8.6.55.55,0,0,0,.5-.3,1.45,1.45,0,0,0,.2-.7.6.6,0,0,0-.1-.4c0-.1-.1-.2-.2-.3s-.2-.1-.3-.2l-.3-.1c-.1,0-.2-.1-.3-.1s-.2-.1-.2-.2a.37.37,0,0,1-.1-.3v-.4a.6.6,0,0,1,.1-.4c0-.1.1-.2.2-.3s.2-.2.3-.2a.37.37,0,0,1,.3-.1.75.75,0,0,1,.5.1,1.38,1.38,0,0,1,.3.4h-.1a.75.75,0,0,0-.7-.5.76.76,0,0,0-.5.2,1.42,1.42,0,0,0-.2.6v.3a.35.35,0,0,0,.1.2l.2.2.3.1c.1,0,.2.1.3.1s.2.1.3.2.2.2.2.3A3.22,3.22,0,0,1,176,173.4Z"/><path d="M179.4,174.5a4.33,4.33,0,0,1-.5-.1c-.2-.1-.3-.3-.4-.4a1.42,1.42,0,0,1-.2-.6,4.84,4.84,0,0,1,0-1.7,1.42,1.42,0,0,1,.2-.6.78.78,0,0,1,.4-.4c.2-.1.3-.2.5-.1a.71.71,0,0,1,.6.3,2,2,0,0,1,.4.8h0v-3.1h.2v6h-.2v-.9h0c-.1.3-.2.5-.3.8C179.9,174.4,179.6,174.5,179.4,174.5Zm1-2a2.2,2.2,0,0,0-.1-.8,1.42,1.42,0,0,0-.2-.6,1.38,1.38,0,0,0-.3-.4.75.75,0,0,0-.9,0,1.38,1.38,0,0,0-.3.4,1.42,1.42,0,0,0-.2.6c0,.3-.1.5-.1.8a2.2,2.2,0,0,0,.1.8,1.42,1.42,0,0,0,.2.6,1.38,1.38,0,0,0,.3.4c.1.1.3.2.4.1s.3-.1.4-.1a1.38,1.38,0,0,0,.3-.4,1.42,1.42,0,0,0,.2-.6,3.09,3.09,0,0,0,.2-.8Z"/><path d="M183.6,173.5v.9h-.2v-.9h0a1.23,1.23,0,0,1-.4.8c-.2.2-.4.3-.6.2a.37.37,0,0,1-.3-.1c-.1,0-.2-.1-.3-.2a.52.52,0,0,1-.2-.4.9.9,0,0,1-.1-.5,1.7,1.7,0,0,1,.1-.7.78.78,0,0,1,.4-.4.76.76,0,0,1,.5-.2h.9v-.3a1.8,1.8,0,0,0-.2-1,.71.71,0,0,0-.6-.3c-.2,0-.3,0-.4.1l-.3.3-.1-.1a.78.78,0,0,1,.4-.4.75.75,0,0,1,.5-.1.67.67,0,0,1,.7.4,2,2,0,0,1,.3,1.1Zm-.1-1.2h-.8a.76.76,0,0,0-.4.2l-.3.3a1.27,1.27,0,0,0-.1.6.6.6,0,0,0,.1.4c0,.1.1.2.2.3l.2.2c.1,0,.2,0,.2.1a.55.55,0,0,0,.5-.2,1.38,1.38,0,0,0,.3-.4,1.27,1.27,0,0,0,.1-.6v-.9Z"/><path d="M189.5,170.4a.9.9,0,0,1,.5.1,1.38,1.38,0,0,1,.3.4.9.9,0,0,1,.1.5v3.1h-.2v-3c0-.1-.1-.3-.1-.4s-.1-.2-.2-.3-.2-.1-.4-.1-.3.1-.4.1a1.38,1.38,0,0,0-.3.4c-.1.2-.1.3-.2.5s-.1.4-.1.6v2.2h-.2v-3c0-.1-.1-.3-.1-.4s-.1-.2-.2-.3-.2-.1-.4-.1-.3.1-.4.1a1.38,1.38,0,0,0-.3.4c-.1.2-.2.3-.2.5s-.1.4-.1.6v2.2h-.2v-3.9h.2v1h0a1.23,1.23,0,0,1,.4-.8.91.91,0,0,1,.7-.3.6.6,0,0,1,.4.1c.1.1.2.1.2.2s.1.2.1.4.1.3.1.4h0c0-.2.1-.3.1-.4s.1-.3.2-.4.2-.2.3-.2C189.2,170.4,189.3,170.4,189.5,170.4Z"/><path d="M191.6,172.4a2.2,2.2,0,0,0,.1.8,1.42,1.42,0,0,0,.2.6,1.38,1.38,0,0,0,.3.4.75.75,0,0,0,.5.1.76.76,0,0,0,.5-.2,2.19,2.19,0,0,0,.3-.5l.1.1a1,1,0,0,1-.4.5.73.73,0,0,1-.6.2.75.75,0,0,1-.5-.1.78.78,0,0,1-.4-.4,1.42,1.42,0,0,1-.2-.6,2.77,2.77,0,0,1-.1-.9,2.2,2.2,0,0,1,.1-.8,1.85,1.85,0,0,1,.2-.7.78.78,0,0,1,.4-.4c.2-.1.3-.2.5-.2a.75.75,0,0,1,.5.1c.1.1.3.2.3.4a1.42,1.42,0,0,1,.2.6v.9l-2,.1Zm2-.1a1.7,1.7,0,0,0-.1-.7.76.76,0,0,0-.2-.5c-.1-.1-.2-.3-.3-.4a.6.6,0,0,0-.4-.1c-.2,0-.3.1-.5.2s-.2.3-.3.4-.1.4-.2.6v.5Z"/><path d="M196.7,173.5c-.1.3-.2.5-.3.8a.91.91,0,0,1-.7.3,4.33,4.33,0,0,1-.5-.1c-.2-.1-.3-.3-.4-.4a1.42,1.42,0,0,1-.2-.6,4.84,4.84,0,0,1,0-1.7,1.42,1.42,0,0,1,.2-.6.78.78,0,0,1,.4-.4c.2-.1.3-.2.5-.1a.71.71,0,0,1,.6.3,2,2,0,0,1,.4.8h0v-.9h.2v4.6a1.85,1.85,0,0,1-.2.7.78.78,0,0,1-.4.4,1.27,1.27,0,0,1-1.2,0,1,1,0,0,1-.4-.5l.1-.1a1,1,0,0,0,.4.5,1.07,1.07,0,0,0,.6.2.75.75,0,0,0,.5-.1,1.38,1.38,0,0,0,.3-.4,1.27,1.27,0,0,0,.1-.6v-2.1Zm0-1a2.2,2.2,0,0,0-.1-.8,1.42,1.42,0,0,0-.2-.6,1.38,1.38,0,0,0-.3-.4.75.75,0,0,0-.9,0,1.38,1.38,0,0,0-.3.4c-.1.2-.1.4-.2.6a3.79,3.79,0,0,0,0,1.5,1.42,1.42,0,0,0,.2.6,1.38,1.38,0,0,0,.3.4c.1.1.3.2.4.1s.3,0,.4-.1a1.38,1.38,0,0,0,.3-.4,1.42,1.42,0,0,0,.2-.6,1,1,0,0,0,.2-.7Z"/><path d="M200,173.5v.9h-.2v-.9h0a1.23,1.23,0,0,1-.4.8c-.2.2-.4.3-.6.2a.37.37,0,0,1-.3-.1c-.1,0-.2-.1-.3-.2a.52.52,0,0,1-.2-.4.9.9,0,0,1-.1-.5,1.7,1.7,0,0,1,.1-.7.78.78,0,0,1,.4-.4.76.76,0,0,1,.5-.2h.9v-.3a1.8,1.8,0,0,0-.2-1,.71.71,0,0,0-.6-.3c-.2,0-.3,0-.4.1l-.3.3-.1-.1a.78.78,0,0,1,.4-.4.75.75,0,0,1,.5-.1.67.67,0,0,1,.7.4,2,2,0,0,1,.3,1.1Zm-.2-1.2H199a.76.76,0,0,0-.4.2l-.3.3a1.27,1.27,0,0,0-.1.6.6.6,0,0,0,.1.4c0,.1.1.2.2.3l.2.2c.1,0,.2,0,.2.1a.55.55,0,0,0,.5-.2,1.38,1.38,0,0,0,.3-.4,1.27,1.27,0,0,0,.1-.6,1.27,1.27,0,0,1,.1-.6v-.3Z"/><path d="M201,172.4v-.2h1v.2Z"/><path d="M204.4,173.4a1.88,1.88,0,0,1-.2.8.91.91,0,0,1-.7.3.87.87,0,0,1-.9-.6l.1-.1a.76.76,0,0,0,.8.6.55.55,0,0,0,.5-.3,1.45,1.45,0,0,0,.2-.7.6.6,0,0,0-.1-.4,1,1,0,0,0-.5-.4l-.3-.1c-.1,0-.2-.1-.3-.1s-.2-.1-.2-.2a.37.37,0,0,1-.1-.3v-.4a.6.6,0,0,1,.1-.4c0-.1.1-.2.2-.3s.2-.2.3-.2a.37.37,0,0,1,.3-.1.75.75,0,0,1,.5.1,1.38,1.38,0,0,1,.3.4l-.1.1a.75.75,0,0,0-.7-.5.76.76,0,0,0-.5.2,1.42,1.42,0,0,0-.2.6v.3a.35.35,0,0,0,.1.2l.2.2.3.1.3.1c.1.1.2.1.3.2s.1.2.2.3C204.4,173.1,204.5,173.3,204.4,173.4Z"/><path d="M205.4,172.4a2.2,2.2,0,0,0,.1.8,1.42,1.42,0,0,0,.2.6,1.38,1.38,0,0,0,.3.4.75.75,0,0,0,.5.1.76.76,0,0,0,.5-.2,2.19,2.19,0,0,0,.3-.5l.1.1a1,1,0,0,1-.4.5.73.73,0,0,1-.6.2,4.33,4.33,0,0,1-.5-.1.78.78,0,0,1-.4-.4,1.42,1.42,0,0,1-.2-.6,2.77,2.77,0,0,1-.1-.9,2.2,2.2,0,0,1,.1-.8,1.85,1.85,0,0,1,.2-.7.78.78,0,0,1,.4-.4c.2-.1.3-.2.5-.2a.75.75,0,0,1,.5.1c.1.1.3.2.3.4a1.42,1.42,0,0,1,.2.6c0,.2.1.5.1.7v.2l-2.1.1Zm2-.1a1.7,1.7,0,0,0-.1-.7.76.76,0,0,0-.2-.5c-.1-.1-.2-.3-.3-.4a.6.6,0,0,0-.4-.1c-.2,0-.3.1-.5.2s-.2.3-.3.4-.1.4-.2.6a.9.9,0,0,1-.1.5Z"/><path d="M208.8,171.5a1.23,1.23,0,0,1,.4-.8,1.07,1.07,0,0,1,1.2-.2,1.38,1.38,0,0,1,.3.4.9.9,0,0,1,.1.5v3.1h-.2v-3a.6.6,0,0,0-.1-.4c0-.1-.1-.2-.2-.3s-.2-.1-.4-.1-.3.1-.4.1a1.38,1.38,0,0,0-.3.4c-.1.2-.2.3-.2.5s-.1.4-.1.6v2.2h-.2v-3.8h.2l-.1.8Z"/><path d="M213.8,173.5v.9h-.2v-1h0a1.23,1.23,0,0,1-.4.8c-.2.2-.4.3-.6.2a.37.37,0,0,1-.3-.1c-.1,0-.2-.1-.3-.2a.52.52,0,0,1-.2-.4.9.9,0,0,1-.1-.5,1.7,1.7,0,0,1,.1-.7.78.78,0,0,1,.4-.4c.1-.1.3-.1.5-.2h.9v-.3a1.8,1.8,0,0,0-.2-1,.78.78,0,0,0-1-.2c-.1.1-.3.2-.3.3l-.1-.1a.78.78,0,0,1,.4-.4.75.75,0,0,1,.5-.1.67.67,0,0,1,.7.4,2,2,0,0,1,.3,1.1Zm-.2-1.2h-.8a.76.76,0,0,0-.4.2l-.3.3a1.27,1.27,0,0,0-.1.6.6.6,0,0,0,.1.4,1,1,0,0,0,.4.5c.1,0,.2,0,.2.1a.55.55,0,0,0,.5-.2,1.38,1.38,0,0,0,.3-.4,1.27,1.27,0,0,0,.1-.6v-.9Z"/><path d="M160,179.4a2.2,2.2,0,0,0,.1.8,1.42,1.42,0,0,0,.2.6,1.38,1.38,0,0,0,.3.4.75.75,0,0,0,.5.1.76.76,0,0,0,.5-.2,2.19,2.19,0,0,0,.3-.5l.1.1a1,1,0,0,1-.4.5.73.73,0,0,1-.6.2,4.33,4.33,0,0,1-.5-.1.78.78,0,0,1-.4-.4,1.42,1.42,0,0,1-.2-.6,2.77,2.77,0,0,1-.1-.9,2.2,2.2,0,0,1,.1-.8,1.85,1.85,0,0,1,.2-.7.78.78,0,0,1,.4-.4.76.76,0,0,1,.5-.2.75.75,0,0,1,.5.1c.1.1.3.2.3.4a1.42,1.42,0,0,1,.2.6c0,.2.1.5.1.7v.2l-2.1.1Zm2-.1a1.7,1.7,0,0,0-.1-.7.76.76,0,0,0-.2-.5c-.1-.1-.2-.3-.3-.4a.6.6,0,0,0-.4-.1c-.2,0-.3.1-.5.2s-.2.3-.3.4-.1.4-.2.6-.1.3-.1.5Z"/><path d="M164.6,181.4v-6h.2v6Z"/><path d="M168.3,179.5a2,2,0,0,1-.1.8,1.42,1.42,0,0,1-.2.6.78.78,0,0,1-.4.4.91.91,0,0,1-1,0c-.2-.1-.3-.3-.4-.4a1.42,1.42,0,0,1-.2-.6,4.84,4.84,0,0,1,0-1.7,1.42,1.42,0,0,1,.2-.6.78.78,0,0,1,.4-.4.9.9,0,0,1,.5-.1,4.33,4.33,0,0,1,.5.1c.2.1.3.3.4.4a1.42,1.42,0,0,1,.2.6A2.77,2.77,0,0,1,168.3,179.5Zm-.1,0a2.2,2.2,0,0,0-.1-.8,1.42,1.42,0,0,0-.2-.6,1.38,1.38,0,0,0-.3-.4c-.1-.1-.3-.2-.4-.1s-.3.1-.4.1-.3.3-.3.4a1.42,1.42,0,0,0-.2.6c0,.3-.1.5-.1.8a2.2,2.2,0,0,0,.1.8,1.42,1.42,0,0,0,.2.6,1.38,1.38,0,0,0,.3.4c.1.1.3.2.4.1s.3-.1.4-.1.3-.2.3-.4a1.42,1.42,0,0,0,.2-.6,2,2,0,0,1,.1-.8Z"/><path d="M170,181.4a.37.37,0,0,1-.3-.1c-.1,0-.1-.1-.2-.2s-.1-.2-.1-.3v-3.2h-.5v-.2h.5v-1.1h.2v1.1h.7v.2h-.7v2.9a1.27,1.27,0,0,0,.1.6c.1.1.2.2.3.2h.2c.1,0,.1,0,.1-.1v.1A.37.37,0,0,1,170,181.4Z"/><path d="M171.1,179.4a2.2,2.2,0,0,0,.1.8,1.42,1.42,0,0,0,.2.6,1.38,1.38,0,0,0,.3.4.75.75,0,0,0,.5.1.76.76,0,0,0,.5-.2,2.19,2.19,0,0,0,.3-.5l.1.1a1,1,0,0,1-.4.5.73.73,0,0,1-.6.2,4.33,4.33,0,0,1-.5-.1.78.78,0,0,1-.4-.4,1.42,1.42,0,0,1-.2-.6,2.77,2.77,0,0,1-.1-.9,2.2,2.2,0,0,1,.1-.8,1.85,1.85,0,0,1,.2-.7.78.78,0,0,1,.4-.4.76.76,0,0,1,.5-.2.75.75,0,0,1,.5.1c.1.1.3.2.4.4a1.42,1.42,0,0,1,.2.6,1.7,1.7,0,0,0,.1.7v.2l-2.2.1Zm2-.1a1.7,1.7,0,0,0-.1-.7.76.76,0,0,0-.2-.5c-.1-.1-.2-.3-.3-.4a.6.6,0,0,0-.4-.1c-.2,0-.3.1-.5.2s-.3.3-.3.4a2,2,0,0,0-.2,1.1Z"/><path d="M174.3,178.3v-.8h.2v1h0a1.23,1.23,0,0,1,.4-.8c.1-.2.3-.2.5-.2h.1v.2h-.1a.76.76,0,0,0-.4.2c-.1.1-.2.3-.3.4s-.1.4-.2.6-.1.4-.1.6v2h-.2v-2.9C174.3,178.4,174.3,178.4,174.3,178.3Z"/><path d="M176.2,176.3c-.1,0-.1,0-.1-.1a.35.35,0,0,1-.1-.2c0-.1,0-.1.1-.1a.1.1,0,0,0,.1-.1.1.1,0,0,1,.1.1l.1.1c0,.1,0,.1-.1.2S176.3,176.3,176.2,176.3Zm0,5.1v-3.9h.2v3.9Z"/><path d="M179.4,180.5v.9h-.2v-.9h0a1.23,1.23,0,0,1-.4.8.73.73,0,0,1-.6.2.37.37,0,0,1-.3-.1c-.1,0-.2-.1-.3-.2a.52.52,0,0,1-.2-.4c0-.2-.1-.3-.1-.5a1.7,1.7,0,0,1,.1-.7.78.78,0,0,1,.4-.4c.1-.1.3-.1.5-.2h.9v-.3a1.8,1.8,0,0,0-.2-1,.71.71,0,0,0-.6-.3c-.2,0-.3,0-.4.1l-.3.3-.1-.1a.78.78,0,0,1,.4-.4.75.75,0,0,1,.5-.1.67.67,0,0,1,.7.4,2,2,0,0,1,.3,1.1Zm-.2-1.2h-.8a.76.76,0,0,0-.4.2l-.3.3a1.27,1.27,0,0,0-.1.6.6.6,0,0,0,.1.4c0,.1.1.2.2.3l.2.2c.1,0,.2,0,.2.1a.55.55,0,0,0,.5-.2,1.38,1.38,0,0,0,.3-.4c.1-.2.1-.4.2-.6v-.6Z"/><path d="M182.4,178.5a1.23,1.23,0,0,1,.4-.8.91.91,0,0,1,.7-.3.75.75,0,0,1,.5.1,1.38,1.38,0,0,1,.3.4.75.75,0,0,1,.1.5v3.1h-.2v-3a.6.6,0,0,0-.1-.4c0-.1-.1-.2-.2-.3s-.2-.1-.4-.1-.3.1-.4.1a1.38,1.38,0,0,0-.3.4c-.1.2-.2.3-.2.5s-.1.4-.1.6v2.2h-.2v-4h.2l-.1,1Z"/><path d="M187.4,180.5v.9h-.2v-1h0a1.23,1.23,0,0,1-.4.8c-.2.2-.4.3-.6.2a.37.37,0,0,1-.3-.1c-.1,0-.2-.1-.3-.2a.52.52,0,0,1-.2-.4.9.9,0,0,1-.1-.5,1.7,1.7,0,0,1,.1-.7.78.78,0,0,1,.4-.4c.1-.1.3-.1.5-.2h.9v-.3a1.8,1.8,0,0,0-.2-1,.71.71,0,0,0-.6-.3c-.2,0-.3,0-.4.1l-.3.3-.1-.1a.78.78,0,0,1,.4-.4.75.75,0,0,1,.5-.1.67.67,0,0,1,.7.4,2,2,0,0,1,.3,1.1Zm-.2-1.2h-.8a.76.76,0,0,0-.4.2l-.3.3a1.27,1.27,0,0,0-.1.6.6.6,0,0,0,.1.4,1,1,0,0,0,.4.5c.1,0,.2,0,.2.1a.55.55,0,0,0,.5-.2,1.38,1.38,0,0,0,.3-.4c.1-.2.1-.4.2-.6v-.6Z"/><path d="M190.4,181a.87.87,0,0,1-1.2.4h-.1c-.2-.1-.3-.3-.4-.4a1.42,1.42,0,0,1-.2-.6,4.84,4.84,0,0,1,0-1.7,1.42,1.42,0,0,1,.2-.6.78.78,0,0,1,.4-.4c.2-.1.3-.2.5-.1a.9.9,0,0,1,.5.1l.3.3-.1.1-.3-.3a.6.6,0,0,0-.4-.1c-.2,0-.3.1-.4.1s-.2.3-.3.4a1.42,1.42,0,0,0-.2.6c0,.3-.1.5-.1.8a2.2,2.2,0,0,0,.1.8,1.42,1.42,0,0,0,.2.6,1.38,1.38,0,0,0,.3.4c.1.1.3.2.4.1a.6.6,0,0,0,.4-.1l.3-.3Z"/><path d="M191.3,176.3c-.1,0-.1,0-.1-.1v-.3a.19.19,0,0,1,.3,0,.1.1,0,0,0,.1.1c0,.1,0,.1-.1.2A.31.31,0,0,1,191.3,176.3Zm-.1,5.1v-3.9h.2v3.9Z"/><path d="M194.9,179.5a2,2,0,0,1-.1.8,1.42,1.42,0,0,1-.2.6.78.78,0,0,1-.4.4c-.2.1-.3.2-.5.1a4.33,4.33,0,0,1-.5-.1c-.2-.1-.3-.3-.4-.4a1.42,1.42,0,0,1-.2-.6,2.49,2.49,0,0,1-.1-.8,2,2,0,0,1,.1-.8,1.42,1.42,0,0,1,.2-.6.78.78,0,0,1,.4-.4.91.91,0,0,1,1,0c.2.1.3.3.4.4a1.42,1.42,0,0,1,.2.6C194.8,178.9,194.9,179.2,194.9,179.5Zm-.2,0a2.2,2.2,0,0,0-.1-.8,1.42,1.42,0,0,0-.2-.6,1.38,1.38,0,0,0-.3-.4.75.75,0,0,0-.9,0,1.38,1.38,0,0,0-.3.4,1.42,1.42,0,0,0-.2.6c0,.3-.1.5-.1.8a2.2,2.2,0,0,0,.1.8,1.42,1.42,0,0,0,.2.6,1.38,1.38,0,0,0,.3.4.75.75,0,0,0,.9,0,1.38,1.38,0,0,0,.3-.4,1.42,1.42,0,0,0,.2-.6A2.49,2.49,0,0,0,194.7,179.5Z"/><path d="M196.2,178.5a1.23,1.23,0,0,1,.4-.8,1.07,1.07,0,0,1,1.2-.2,1.38,1.38,0,0,1,.3.4.9.9,0,0,1,.1.5v3.1H198v-3a.6.6,0,0,0-.1-.4c0-.1-.1-.2-.2-.3s-.2-.1-.4-.1-.3.1-.4.1a1.38,1.38,0,0,0-.3.4c-.1.2-.2.3-.2.5s-.1.4-.1.6v2.2H196v-4h.2v1Z"/><path d="M201.2,180.5v.9H201v-1h0a1.23,1.23,0,0,1-.4.8c-.2.2-.4.3-.6.2a.37.37,0,0,1-.3-.1c-.1,0-.2-.1-.3-.2a.52.52,0,0,1-.2-.4.9.9,0,0,1-.1-.5,1.7,1.7,0,0,1,.1-.7.78.78,0,0,1,.4-.4c.1-.1.3-.1.5-.2h.9v-.3a1.8,1.8,0,0,0-.2-1,.71.71,0,0,0-.6-.3c-.2,0-.3,0-.4.1s-.3.2-.3.3l-.1-.1a.78.78,0,0,1,.4-.4.75.75,0,0,1,.5-.1.67.67,0,0,1,.7.4,2,2,0,0,1,.3,1.1Zm-.2-1.2h-.8a.76.76,0,0,0-.4.2l-.3.3a1.27,1.27,0,0,0-.1.6.6.6,0,0,0,.1.4,1,1,0,0,0,.4.5c.1,0,.2,0,.2.1a.55.55,0,0,0,.5-.2,1.38,1.38,0,0,0,.3-.4,1.27,1.27,0,0,0,.1-.6,1.27,1.27,0,0,1,.1-.6Z"/><path d="M202.4,181.4v-6h.2v6Z"/><path class="cls-13" d="M111.6,154.2V165H100.8a5.2,5.2,0,1,1,0-10.4h.4v-.4a5.2,5.2,0,0,1,10.4-.4v.4Z"/><path class="cls-14" d="M112,154.2V165h10.8a5.2,5.2,0,1,0,0-10.4h-.4v-.4a5.2,5.2,0,0,0-10.4-.4v.4Z"/><path class="cls-14" d="M111.6,176.3V165.5H100.8a5.2,5.2,0,1,0,0,10.4h.4v.4a5.2,5.2,0,1,0,10.4.4h0v-.4Z"/><path class="cls-13" d="M112,176.3V165.5h10.8a5.2,5.2,0,0,1,0,10.4h-.4v.4a5.2,5.2,0,1,1-10.4.4h0v-.4Z"/></g></g></g></g></svg>