<?xml version="1.0" encoding="utf-8"?>
<!-- Generator: Adobe Illustrator 24.0.0, SVG Export Plug-In . SVG Version: 6.00 Build 0)  -->
<svg version="1.1" id="Camada_1" xmlns="http://www.w3.org/2000/svg" xmlns:xlink="http://www.w3.org/1999/xlink" x="0px" y="0px"
	 viewBox="0 0 322 184" style="enable-background:new 0 0 322 184;" xml:space="preserve">
<style type="text/css">
	.st0{fill:url(#SVGID_1_);}
	.st1{fill:url(#SVGID_2_);}
	.st2{fill:#1A793E;}
	.st3{font-family:'Roboto-Bold';}
	.st4{font-size:38px;}
	.st5{fill:none;stroke:#002A03;stroke-width:0.25;stroke-miterlimit:10;}
	.st6{fill:#FFFFFF;}
	.st7{font-family:'Arial-BoldMT';}
	.st8{font-size:43px;}
	.st9{fill:none;stroke:#08583E;stroke-miterlimit:10;}
	.st10{fill:#B4F1FF;}
	.st11{font-size:12px;}
	.st12{font-size:15px;}
	.st13{fill:#0A41FF;}
	.st14{font-family:'ArialNarrow';}
	.st15{font-size:2px;}
	.st16{fill:#1A793E;stroke:#FFFFFF;stroke-miterlimit:10;}
	.st17{fill:#B2CFB3;stroke:#FFFFFF;stroke-miterlimit:10;}
</style>
<title>resultado-mega-sena-2358-acumulou</title>
<g>
	
		<linearGradient id="SVGID_1_" gradientUnits="userSpaceOnUse" x1="322" y1="1826" x2="9.094947e-13" y2="1826" gradientTransform="matrix(1 0 0 1 0 -1734)">
		<stop  offset="0" style="stop-color:#1A793E"/>
		<stop  offset="1" style="stop-color:#91BD99"/>
	</linearGradient>
	<rect class="st0" width="322" height="184"/>
	
		<image style="overflow:visible;opacity:0.28;enable-background:new    ;" width="153" height="48" xlink:href="253B203C1C8D6984.png"  transform="matrix(0.9922 0 0 0.9922 0.1174 73.2074)">
	</image>
	
		<linearGradient id="SVGID_2_" gradientUnits="userSpaceOnUse" x1="145" y1="1828.25" x2="0" y2="1828.25" gradientTransform="matrix(1 0 0 1 0 -1734)">
		<stop  offset="0" style="stop-color:#FFFFFF"/>
		<stop  offset="1" style="stop-color:#CFE7D2"/>
	</linearGradient>
	<rect y="74.5" class="st1" width="145" height="39.5"/>
	<text transform="matrix(1 0 0 1 18.53 107)" class="st2 st3 st4">#2362</text>
	<text transform="matrix(1 0 0 1 18.53 106.9999)" class="st5 st3 st4">#2362</text>
	<text transform="matrix(1 0 0 1 21.76 52.6)" class="st6 st7 st8">MEGA-SE</text>
	<text transform="matrix(1 0 0 1 21.76 52.6)" class="st9 st7 st8">MEGA-SE</text>
	<text transform="matrix(1 0 0 1 225.378 52.5997)" class="st6 st7 st8">N</text>
	<text transform="matrix(1 0 0 1 225.3779 52.5999)" class="st9 st7 st8">N</text>
	<text transform="matrix(1 0 0 1 256.4897 52.5995)" class="st6 st7 st8">A</text>
	<text transform="matrix(1 0 0 1 256.49 52.5996)" class="st9 st7 st8">A</text>
	<text transform="matrix(1 0 0 1 233 82)" class="st10 st3 st11">@megadehoje</text>
	<text transform="matrix(1 0 0 1 233 101.01)" class="st10 st3 st11">#megadehoje</text>
	<text transform="matrix(1 0 0 1 120.04 16.5699)" class="st3 st12">RESU</text>
	<text transform="matrix(1 0 0 1 120.04 16.5699)" class="st9 st3 st12">RESU</text>
	<text transform="matrix(1 0 0 1 157.14 16.5699)" class="st3 st12">L</text>
	<text transform="matrix(1 0 0 1 157.14 16.5699)" class="st9 st3 st12">L</text>
	<text transform="matrix(1 0 0 1 163.77 16.5699)" class="st3 st12">T</text>
	<text transform="matrix(1 0 0 1 163.77 16.5699)" class="st9 st3 st12">T</text>
	<text transform="matrix(1 0 0 1 172.17 16.5699)" class="st3 st12">ADO</text>
	<text transform="matrix(1 0 0 1 172.17 16.5699)" class="st9 st3 st12">ADO</text>
	<text transform="matrix(1 0 0 1 119.25 112.62)" class="st13 st14 st15">Mega de Hoje - megadehoje.com</text>
	<path d="M138.8,167l0.1-9.2h-0.1l-2.3,9.2h-2.1l-2.2-9.2h-0.1l0.1,9.2h-2.8v-13.5h3.8l2.2,8.7h0.1l2.1-8.7h4.1V167H138.8z"/>
	<path d="M144.1,167v-13.5h6.5v2.7H147v2.6h3.3v2.5H147v2.9h3.8v2.7h-6.7V167z"/>
	<path d="M159.6,167c-0.7,0.2-1.4,0.3-2.1,0.3c-1.6,0-3.1-0.7-4-2c-0.5-0.7-0.8-1.4-1.1-2.2c-0.3-0.9-0.4-1.9-0.4-2.9
		s0.1-1.9,0.4-2.9c0.2-0.8,0.5-1.6,1-2.2c0.4-0.6,1-1.1,1.6-1.4c0.7-0.4,1.4-0.5,2.1-0.5c0.8,0,1.6,0.1,2.3,0.5
		c0.6,0.3,1.1,0.7,1.5,1.2l-1.6,2.2c-0.4-0.6-1.1-1-1.9-0.9c-0.4,0-0.8,0.1-1.1,0.3s-0.6,0.5-0.8,0.9s-0.4,0.9-0.4,1.3
		c-0.1,0.5-0.1,1.1-0.1,1.6s0,1.1,0.1,1.6s0.2,0.9,0.4,1.3c0.2,0.4,0.4,0.7,0.8,0.9c0.6,0.4,1.5,0.5,2.1,0.1v-2.5H157V159h4.1v7.2
		C160.7,166.5,160.2,166.8,159.6,167z"/>
	<path d="M169.2,167l-0.6-2.5h-3L165,167h-3l3.3-13.5h3.8l3.2,13.5H169.2z M167.2,156.5L167.2,156.5l-1.2,5.7h2.3L167.2,156.5z"/>
	<path d="M186.4,160.3c0,0.9-0.1,1.9-0.3,2.8c-0.2,0.8-0.5,1.5-1,2.1s-1.1,1.1-1.7,1.4c-0.8,0.3-1.6,0.5-2.5,0.5h-3.8v-13.5h3.8
		c0.9,0,1.7,0.1,2.5,0.5c0.7,0.3,1.3,0.8,1.7,1.4c0.5,0.6,0.8,1.4,1,2.1C186.3,158.4,186.4,159.4,186.4,160.3z M183.4,160.3
		c0.1-1.1-0.2-2.1-0.7-3.1c-0.4-0.6-1.1-1-1.8-1h-0.7v8.1h0.7c0.7,0,1.4-0.4,1.8-1C183.2,162.4,183.4,161.4,183.4,160.3z"/>
	<path d="M188.3,167v-13.5h6.5v2.7h-3.6v2.6h3.3v2.5h-3.3v2.9h3.8v2.7h-6.7V167z"/>
	<path d="M206.7,167v-5.6h-3.1v5.6h-3v-13.5h3v5.1h3.1v-5.1h3V167H206.7z"/>
	<path d="M221.9,160.2c0,1-0.1,2-0.4,2.9c-0.2,0.8-0.5,1.6-1,2.2c-0.4,0.6-1,1.1-1.6,1.4c-1.4,0.7-3,0.7-4.3,0
		c-0.7-0.3-1.2-0.8-1.6-1.4c-0.5-0.7-0.8-1.4-1-2.2c-0.3-1-0.4-1.9-0.4-2.9s0.1-2,0.4-2.9c0.2-0.8,0.5-1.5,1-2.2
		c0.4-0.6,1-1.1,1.6-1.4c2.1-1.1,4.6-0.5,5.9,1.4c0.5,0.7,0.8,1.4,1,2.2C221.8,158.3,221.9,159.3,221.9,160.2z M218.8,160.2
		c0-0.5,0-1.1-0.1-1.6c-0.1-0.4-0.2-0.9-0.4-1.3c-0.1-0.3-0.4-0.6-0.6-0.9c-0.5-0.4-1.3-0.4-1.8,0c-0.3,0.2-0.5,0.5-0.6,0.9
		c-0.2,0.4-0.3,0.9-0.4,1.3c-0.1,0.5-0.1,1.1-0.1,1.6s0,1.1,0.1,1.6s0.2,0.9,0.4,1.3c0.2,0.3,0.4,0.6,0.6,0.9c0.5,0.4,1.3,0.4,1.8,0
		c0.3-0.2,0.5-0.5,0.6-0.9c0.2-0.4,0.3-0.9,0.4-1.3C218.8,161.3,218.8,160.8,218.8,160.2L218.8,160.2z"/>
	<path d="M228.3,166.1c-0.7,0.9-1.9,1.3-3,1.2c-0.9,0-1.7-0.3-2.4-0.8s-1.1-1.3-1.3-2.1l2.5-1.1c0.1,0.3,0.2,0.6,0.4,0.8
		c0.3,0.4,0.9,0.5,1.3,0.2c0.1-0.1,0.2-0.2,0.3-0.3c0.1-0.5,0.2-0.9,0.2-1.4v-9h3v9.2C229.2,163.9,228.9,165.1,228.3,166.1z"/>
	<path d="M231.5,167v-13.5h6.5v2.7h-3.6v2.6h3.3v2.5h-3.3v2.9h3.8v2.7h-6.7V167z"/>
	<path d="M151.3,174.4l-1.2-2.9h-0.9v2.9H149v-5.7h1.1c0.1,0,0.3,0,0.4,0.1c0.2,0,0.3,0.1,0.4,0.2c0.1,0.1,0.2,0.3,0.3,0.4
		c0.1,0.2,0.1,0.4,0.1,0.7c0,0.2,0,0.4-0.1,0.7c-0.1,0.2-0.2,0.3-0.3,0.4c-0.1,0.1-0.2,0.2-0.4,0.2c-0.1,0-0.3,0.1-0.4,0.1
		L151.3,174.4L151.3,174.4L151.3,174.4z M151.3,170.1c0-0.2,0-0.4-0.1-0.6c-0.1-0.1-0.2-0.3-0.3-0.4c-0.1-0.1-0.2-0.2-0.4-0.2
		c-0.1,0-0.3-0.1-0.4-0.1h-0.9v2.5h0.9c0.3,0,0.6-0.1,0.8-0.4C151.2,170.7,151.3,170.4,151.3,170.1z"/>
	<path d="M152.4,172.4c0,0.3,0,0.5,0.1,0.8c0,0.2,0.1,0.4,0.2,0.6c0.1,0.2,0.2,0.3,0.3,0.4c0.1,0.1,0.3,0.1,0.5,0.1s0.4-0.1,0.5-0.2
		c0.1-0.1,0.2-0.3,0.3-0.5l0.1,0.1c-0.1,0.2-0.2,0.4-0.4,0.5c-0.2,0.2-0.4,0.2-0.6,0.2c-0.2,0-0.4,0-0.5-0.1
		c-0.2-0.1-0.3-0.2-0.4-0.4c-0.1-0.2-0.2-0.4-0.2-0.6c-0.1-0.3-0.1-0.6-0.1-0.9c0-0.3,0-0.5,0.1-0.8c0-0.2,0.1-0.5,0.2-0.7
		c0.1-0.2,0.2-0.3,0.4-0.4c0.2-0.1,0.3-0.2,0.5-0.2s0.4,0,0.5,0.1s0.3,0.2,0.3,0.4c0.1,0.2,0.2,0.4,0.2,0.6c0,0.2,0.1,0.5,0.1,0.7
		v0.2L152.4,172.4L152.4,172.4z M154.4,172.3c0-0.2,0-0.5-0.1-0.7c0-0.2-0.1-0.4-0.2-0.5c-0.1-0.1-0.2-0.3-0.3-0.4
		c-0.1-0.1-0.3-0.1-0.4-0.1c-0.2,0-0.4,0.1-0.5,0.2c-0.1,0.1-0.2,0.3-0.3,0.4c-0.1,0.2-0.1,0.4-0.2,0.6c0,0.2,0,0.3-0.1,0.5H154.4z"
		/>
	<path d="M157,173.4c0,0.3-0.1,0.6-0.2,0.8c-0.2,0.2-0.4,0.3-0.7,0.3c-0.4,0-0.8-0.2-0.9-0.6l0.1-0.1c0.1,0.4,0.4,0.6,0.8,0.6
		c0.2,0,0.4-0.1,0.5-0.3s0.2-0.4,0.2-0.7c0-0.1,0-0.3-0.1-0.4c0-0.1-0.1-0.2-0.2-0.3c-0.1-0.1-0.2-0.1-0.3-0.2l-0.3-0.1
		c-0.1,0-0.2-0.1-0.3-0.1c-0.1-0.1-0.2-0.1-0.2-0.2c-0.1-0.1-0.1-0.2-0.1-0.3s0-0.3,0-0.4c0-0.1,0-0.3,0.1-0.4
		c0-0.1,0.1-0.2,0.2-0.3c0.1-0.1,0.2-0.2,0.3-0.2c0.3-0.1,0.6-0.1,0.9,0.1c0.1,0.1,0.2,0.2,0.3,0.4H157c-0.1-0.3-0.4-0.5-0.7-0.5
		c-0.2,0-0.4,0.1-0.5,0.2c-0.1,0.2-0.2,0.4-0.2,0.6c0,0.1,0,0.2,0,0.3s0.1,0.2,0.1,0.2c0.1,0.1,0.1,0.1,0.2,0.2l0.3,0.1
		c0.1,0,0.2,0.1,0.3,0.1c0.1,0.1,0.2,0.1,0.3,0.2c0.1,0.1,0.2,0.2,0.2,0.3C157,173.1,157,173.3,157,173.4z"/>
	<path d="M160,173.4c0,0.3-0.2,0.6-0.4,0.8s-0.4,0.3-0.7,0.3c-0.2,0-0.3,0-0.5-0.1c-0.1-0.1-0.2-0.2-0.3-0.4
		c-0.1-0.1-0.1-0.3-0.1-0.5s0-0.3,0-0.5v-2.6h0.2v2.6c0,0.1,0,0.3,0,0.4c0,0.1,0.1,0.3,0.1,0.4c0,0.1,0.1,0.2,0.2,0.3
		c0.1,0.1,0.3,0.1,0.4,0.1c0.2,0,0.3-0.1,0.4-0.1c0.1-0.1,0.2-0.2,0.3-0.4s0.2-0.3,0.2-0.5s0.1-0.4,0.1-0.6v-2.2h0.2v2.9
		C160.1,173.4,160.1,173.5,160,173.4l0.1,0.4c0,0.1,0,0.2,0,0.3s0,0.1,0,0.2H160c0-0.1,0-0.1,0-0.2c0-0.1,0-0.2,0-0.3
		S160,173.6,160,173.4L160,173.4L160,173.4z"/>
	<path d="M161.5,174.4v-6h0.2v6H161.5z"/>
	<path d="M163.6,174.4c-0.1,0-0.2,0-0.3-0.1c-0.1,0-0.1-0.1-0.2-0.2c0-0.1-0.1-0.2-0.1-0.3s0-0.2,0-0.4v-2.9h-0.5v-0.2h0.5v-1.1h0.2
		v1.1h0.7v0.2h-0.7v2.9c0,0.2,0,0.4,0.1,0.6c0.1,0.1,0.2,0.2,0.3,0.2h0.2c0.1,0,0.1,0,0.1-0.1v0.1
		C163.9,174.4,163.8,174.4,163.6,174.4z"/>
	<path d="M166.5,173.5c0,0.1,0,0.3,0,0.5s0,0.3,0,0.4h-0.2c0,0,0-0.1,0-0.2s0-0.2,0-0.3v-0.2c0-0.1,0-0.1,0-0.2l0,0
		c0,0.3-0.2,0.6-0.4,0.8s-0.4,0.3-0.6,0.2c-0.1,0-0.2,0-0.3-0.1c-0.1,0-0.2-0.1-0.3-0.2c-0.1-0.1-0.2-0.2-0.2-0.4
		c-0.1-0.2-0.1-0.3-0.1-0.5s0-0.5,0.1-0.7s0.2-0.3,0.4-0.4c0.1-0.1,0.3-0.1,0.5-0.2c0.1,0,0.3,0,0.4,0h0.4v-0.3
		c0-0.3-0.1-0.7-0.2-0.9c-0.1-0.2-0.4-0.3-0.6-0.3c-0.2,0-0.3,0-0.4,0.1c-0.1,0.1-0.2,0.2-0.3,0.3l-0.1-0.1c0.1-0.2,0.2-0.3,0.4-0.4
		c0.1-0.1,0.3-0.1,0.5-0.1c0.3,0,0.6,0.1,0.7,0.4c0.2,0.3,0.3,0.7,0.3,1.1L166.5,173.5z M166.4,172.3H166c-0.1,0-0.3,0-0.4,0
		c-0.1,0-0.3,0.1-0.4,0.2c-0.1,0.1-0.2,0.2-0.3,0.3c-0.1,0.2-0.1,0.4-0.1,0.6c0,0.1,0,0.3,0.1,0.4c0,0.1,0.1,0.2,0.2,0.3
		c0.1,0.1,0.1,0.1,0.2,0.2c0.1,0,0.2,0,0.2,0.1c0.2,0,0.3,0,0.5-0.2c0.1-0.1,0.2-0.2,0.3-0.4s0.1-0.4,0.1-0.6c0-0.2,0-0.4,0.1-0.6
		L166.4,172.3z"/>
	<path d="M168.7,174.5c-0.2,0-0.4-0.1-0.5-0.1c-0.2-0.1-0.3-0.3-0.4-0.4c-0.1-0.2-0.2-0.4-0.2-0.6c-0.1-0.3-0.1-0.6-0.1-0.8
		c0-0.3,0-0.6,0.1-0.8c0-0.2,0.1-0.4,0.2-0.6c0.1-0.2,0.2-0.3,0.4-0.4c0.2-0.1,0.3-0.2,0.5-0.1c0.2,0,0.5,0.1,0.6,0.3
		c0.2,0.2,0.3,0.5,0.4,0.8l0,0v-3.1h0.2v6h-0.2v-0.9l0,0c0,0.3-0.2,0.5-0.4,0.8C169.2,174.4,169,174.5,168.7,174.5z M169.7,172.5
		c0-0.3,0-0.5-0.1-0.8c0-0.2-0.1-0.4-0.2-0.6c-0.1-0.2-0.2-0.3-0.3-0.4c-0.1-0.1-0.3-0.2-0.4-0.1c-0.2,0-0.3,0.1-0.4,0.1
		c-0.1,0.1-0.2,0.3-0.3,0.4c-0.1,0.2-0.2,0.4-0.2,0.6c0,0.3-0.1,0.5-0.1,0.8s0,0.5,0.1,0.8c0,0.2,0.1,0.4,0.2,0.6
		c0.1,0.2,0.2,0.3,0.3,0.4c0.3,0.2,0.6,0.2,0.9,0c0.1-0.1,0.2-0.2,0.3-0.4s0.1-0.4,0.2-0.6C169.7,173,169.7,172.7,169.7,172.5
		L169.7,172.5z"/>
	<path d="M173.4,172.5c0,0.3,0,0.6-0.1,0.8c0,0.2-0.1,0.4-0.2,0.6c-0.1,0.2-0.2,0.3-0.4,0.4c-0.1,0.1-0.3,0.2-0.5,0.1
		c-0.2,0-0.4,0-0.5-0.1c-0.2-0.1-0.3-0.3-0.4-0.4c-0.1-0.2-0.2-0.4-0.2-0.6c-0.1-0.3-0.1-0.6-0.1-0.8c0-0.3,0-0.6,0.1-0.8
		c0-0.2,0.1-0.4,0.2-0.6c0.1-0.2,0.2-0.3,0.4-0.4c0.2-0.1,0.3-0.1,0.5-0.1s0.4,0,0.5,0.1c0.2,0.1,0.3,0.3,0.4,0.4
		c0.1,0.2,0.2,0.4,0.2,0.6C173.4,171.9,173.4,172.2,173.4,172.5z M173.2,172.5c0-0.3,0-0.5-0.1-0.8c0-0.2-0.1-0.4-0.2-0.6
		c-0.1-0.2-0.2-0.3-0.3-0.4c-0.1-0.1-0.3-0.2-0.4-0.1c-0.2,0-0.3,0.1-0.4,0.1c-0.1,0.1-0.3,0.3-0.3,0.4c-0.1,0.2-0.2,0.4-0.2,0.6
		c0,0.3-0.1,0.5-0.1,0.8s0,0.5,0.1,0.8c0,0.2,0.1,0.4,0.2,0.6c0.1,0.2,0.2,0.3,0.3,0.4c0.3,0.2,0.6,0.2,0.9,0
		c0.1-0.1,0.2-0.2,0.3-0.4s0.2-0.4,0.2-0.6C173.2,173,173.3,172.7,173.2,172.5z"/>
	<path d="M176,173.4c0,0.3-0.1,0.6-0.2,0.8c-0.2,0.2-0.4,0.3-0.7,0.3c-0.4,0-0.8-0.2-0.9-0.6l0.1-0.1c0.1,0.4,0.4,0.6,0.8,0.6
		c0.2,0,0.4-0.1,0.5-0.3s0.2-0.4,0.2-0.7c0-0.1,0-0.3-0.1-0.4c0-0.1-0.1-0.2-0.2-0.3c-0.1-0.1-0.2-0.1-0.3-0.2l-0.3-0.1
		c-0.1,0-0.2-0.1-0.3-0.1c-0.1-0.1-0.2-0.1-0.2-0.2c-0.1-0.1-0.1-0.2-0.1-0.3s0-0.3,0-0.4c0-0.1,0-0.3,0.1-0.4
		c0-0.1,0.1-0.2,0.2-0.3c0.1-0.1,0.2-0.2,0.3-0.2c0.1-0.1,0.2-0.1,0.3-0.1c0.2,0,0.4,0,0.5,0.1s0.2,0.2,0.3,0.4l0,0.1
		c-0.1-0.3-0.4-0.5-0.7-0.5c-0.2,0-0.4,0.1-0.5,0.2c-0.1,0.2-0.2,0.4-0.2,0.6c0,0.1,0,0.2,0,0.3s0.1,0.2,0.1,0.2
		c0.1,0.1,0.1,0.1,0.2,0.2l0.3,0.1c0.1,0,0.2,0.1,0.3,0.1c0.1,0.1,0.2,0.1,0.3,0.2c0.1,0.1,0.2,0.2,0.2,0.3
		C176,173.1,176,173.3,176,173.4z"/>
	<path d="M179.4,174.5c-0.2,0-0.4-0.1-0.5-0.1c-0.2-0.1-0.3-0.3-0.4-0.4c-0.1-0.2-0.2-0.4-0.2-0.6c-0.1-0.5-0.1-1.1,0-1.7
		c0-0.2,0.1-0.4,0.2-0.6c0.1-0.2,0.2-0.3,0.4-0.4c0.2-0.1,0.3-0.2,0.5-0.1c0.2,0,0.5,0.1,0.6,0.3c0.2,0.2,0.3,0.5,0.4,0.8l0,0v-3.1
		h0.2v6h-0.2v-0.9l0,0c0,0.3-0.2,0.5-0.3,0.8C179.9,174.4,179.6,174.5,179.4,174.5z M180.4,172.5c0-0.3,0-0.5-0.1-0.8
		c0-0.2-0.1-0.4-0.2-0.6c-0.1-0.2-0.2-0.3-0.3-0.4c-0.3-0.2-0.6-0.2-0.9,0c-0.1,0.1-0.2,0.2-0.3,0.4s-0.1,0.4-0.2,0.6
		c0,0.3-0.1,0.5-0.1,0.8s0,0.5,0.1,0.8c0,0.2,0.1,0.4,0.2,0.6c0.1,0.2,0.2,0.3,0.3,0.4c0.1,0.1,0.3,0.2,0.4,0.1c0.2,0,0.3,0,0.4-0.1
		c0.1-0.1,0.2-0.2,0.3-0.4s0.1-0.4,0.2-0.6C180.3,173,180.4,172.7,180.4,172.5L180.4,172.5z"/>
	<path d="M183.6,173.5c0,0.1,0,0.3,0,0.5s0,0.3,0,0.4h-0.2c0,0,0-0.1,0-0.2s0-0.2,0-0.3v-0.2c0-0.1,0-0.1,0-0.2l0,0
		c0,0.3-0.2,0.6-0.4,0.8s-0.4,0.3-0.6,0.2c-0.1,0-0.2,0-0.3-0.1c-0.1,0-0.2-0.1-0.3-0.2c-0.1-0.1-0.2-0.2-0.2-0.4
		c-0.1-0.2-0.1-0.3-0.1-0.5s0-0.5,0.1-0.7s0.2-0.3,0.4-0.4c0.1-0.1,0.3-0.1,0.5-0.2c0.1,0,0.3,0,0.4,0h0.4v-0.3
		c0-0.3-0.1-0.7-0.2-0.9c-0.1-0.2-0.4-0.3-0.6-0.3c-0.2,0-0.3,0-0.4,0.1c-0.1,0.1-0.2,0.2-0.3,0.3l-0.1-0.1c0.1-0.2,0.2-0.3,0.4-0.4
		c0.1-0.1,0.3-0.1,0.5-0.1c0.3,0,0.6,0.1,0.7,0.4c0.2,0.3,0.3,0.7,0.3,1.1L183.6,173.5z M183.5,172.3h-0.4c-0.1,0-0.3,0-0.4,0
		c-0.1,0-0.3,0.1-0.4,0.2c-0.1,0.1-0.2,0.2-0.3,0.3c-0.1,0.2-0.1,0.4-0.1,0.6c0,0.1,0,0.3,0.1,0.4c0,0.1,0.1,0.2,0.2,0.3
		c0.1,0.1,0.1,0.1,0.2,0.2c0.1,0,0.2,0,0.2,0.1c0.2,0,0.3,0,0.5-0.2c0.1-0.1,0.2-0.2,0.3-0.4s0.1-0.4,0.1-0.6c0-0.2,0-0.4,0-0.6
		L183.5,172.3z"/>
	<path d="M189.5,170.4c0.2,0,0.3,0,0.5,0.1c0.1,0.1,0.2,0.2,0.3,0.4s0.1,0.3,0.1,0.5s0,0.3,0,0.5v2.6h-0.2v-2.6c0-0.1,0-0.3,0-0.4
		c0-0.1,0-0.3-0.1-0.4c-0.1-0.1-0.1-0.2-0.2-0.3c-0.1-0.1-0.3-0.1-0.4-0.1c-0.2,0-0.3,0-0.4,0.1c-0.1,0.1-0.2,0.2-0.3,0.4
		s-0.1,0.3-0.2,0.5c0,0.2-0.1,0.4-0.1,0.6v2.2h-0.2v-2.6c0-0.1,0-0.3,0-0.4c0-0.1,0-0.3-0.1-0.4c0-0.1-0.1-0.2-0.2-0.3
		c-0.1-0.1-0.2-0.1-0.4-0.1s-0.3,0.1-0.4,0.1c-0.1,0.1-0.2,0.2-0.3,0.4s-0.2,0.3-0.2,0.5s-0.1,0.4-0.1,0.6v2.2h-0.2v-2.9
		c0-0.1,0-0.1,0-0.2V171c0-0.1,0-0.2,0-0.3s0-0.2,0-0.2h0.2c0,0.1,0,0.1,0,0.2c0,0.1,0,0.2,0,0.3s0,0.2,0,0.3v0.2l0,0
		c0-0.3,0.2-0.6,0.4-0.8s0.4-0.3,0.7-0.3c0.1,0,0.3,0,0.4,0.1c0.1,0.1,0.2,0.1,0.2,0.2c0.1,0.1,0.1,0.2,0.1,0.4
		c0,0.1,0.1,0.3,0.1,0.4l0,0c0-0.2,0.1-0.3,0.1-0.4c0.1-0.1,0.1-0.3,0.2-0.4c0.1-0.1,0.2-0.2,0.3-0.2
		C189.2,170.4,189.3,170.4,189.5,170.4z"/>
	<path d="M191.6,172.4c0,0.3,0,0.5,0.1,0.8c0,0.2,0.1,0.4,0.2,0.6c0.1,0.2,0.2,0.3,0.3,0.4c0.1,0.1,0.3,0.1,0.5,0.1s0.4-0.1,0.5-0.2
		c0.1-0.1,0.2-0.3,0.3-0.5l0.1,0.1c-0.1,0.2-0.2,0.4-0.4,0.5c-0.2,0.2-0.4,0.2-0.6,0.2c-0.2,0-0.4,0-0.5-0.1
		c-0.2-0.1-0.3-0.2-0.4-0.4c-0.1-0.2-0.2-0.4-0.2-0.6c-0.1-0.3-0.1-0.6-0.1-0.9c0-0.3,0-0.5,0.1-0.8c0-0.2,0.1-0.5,0.2-0.7
		c0.1-0.2,0.2-0.3,0.4-0.4c0.2-0.1,0.3-0.2,0.5-0.2s0.4,0,0.5,0.1s0.3,0.2,0.3,0.4c0.1,0.2,0.2,0.4,0.2,0.6c0,0.2,0,0.5,0,0.7v0.2
		L191.6,172.4L191.6,172.4z M193.6,172.3c0-0.2,0-0.5-0.1-0.7c0-0.2-0.1-0.4-0.2-0.5c-0.1-0.1-0.2-0.3-0.3-0.4
		c-0.1-0.1-0.3-0.1-0.4-0.1c-0.2,0-0.4,0.1-0.5,0.2c-0.1,0.1-0.2,0.3-0.3,0.4c-0.1,0.2-0.1,0.4-0.2,0.6c0,0.2,0,0.3,0,0.5H193.6z"/>
	<path d="M196.7,173.5c0,0.3-0.2,0.5-0.3,0.8c-0.2,0.2-0.4,0.3-0.7,0.3c-0.2,0-0.4-0.1-0.5-0.1c-0.2-0.1-0.3-0.3-0.4-0.4
		c-0.1-0.2-0.2-0.4-0.2-0.6c-0.1-0.5-0.1-1.1,0-1.7c0-0.2,0.1-0.4,0.2-0.6c0.1-0.2,0.2-0.3,0.4-0.4c0.2-0.1,0.3-0.2,0.5-0.1
		c0.2,0,0.5,0.1,0.6,0.3c0.2,0.2,0.3,0.5,0.4,0.8l0,0v-0.9h0.2v3.7c0,0.3,0,0.6,0,0.9c0,0.2-0.1,0.5-0.2,0.7
		c-0.1,0.2-0.2,0.3-0.4,0.4c-0.4,0.2-0.9,0.2-1.2,0c-0.2-0.1-0.3-0.3-0.4-0.5l0.1-0.1c0.1,0.2,0.2,0.4,0.4,0.5s0.3,0.2,0.6,0.2
		c0.2,0,0.4,0,0.5-0.1s0.2-0.2,0.3-0.4s0.1-0.4,0.1-0.6c0-0.3,0-0.5,0-0.8L196.7,173.5L196.7,173.5z M196.7,172.5
		c0-0.3,0-0.5-0.1-0.8c0-0.2-0.1-0.4-0.2-0.6c-0.1-0.2-0.2-0.3-0.3-0.4c-0.3-0.2-0.6-0.2-0.9,0c-0.1,0.1-0.2,0.2-0.3,0.4
		s-0.1,0.4-0.2,0.6c-0.1,0.5-0.1,1,0,1.5c0,0.2,0.1,0.4,0.2,0.6c0.1,0.2,0.2,0.3,0.3,0.4c0.1,0.1,0.3,0.2,0.4,0.1
		c0.2,0,0.3,0,0.4-0.1c0.1-0.1,0.2-0.2,0.3-0.4s0.1-0.4,0.2-0.6C196.7,173,196.7,172.7,196.7,172.5L196.7,172.5z"/>
	<path d="M200,173.5c0,0.1,0,0.3,0,0.5s0,0.3,0,0.4h-0.2c0,0,0-0.1,0-0.2s0-0.2,0-0.3v-0.2c0-0.1,0-0.1,0-0.2l0,0
		c0,0.3-0.2,0.6-0.4,0.8s-0.4,0.2-0.6,0.2c-0.1,0-0.2,0-0.3-0.1c-0.1,0-0.2-0.1-0.3-0.2c-0.1-0.1-0.2-0.2-0.2-0.4
		c-0.1-0.2-0.1-0.3-0.1-0.5s0-0.5,0.1-0.7s0.2-0.3,0.4-0.4c0.1-0.1,0.3-0.1,0.5-0.2c0.1,0,0.3,0,0.4,0h0.4v-0.3
		c0-0.3-0.1-0.7-0.2-0.9c-0.1-0.2-0.4-0.3-0.6-0.3c-0.2,0-0.3,0-0.4,0.1c-0.1,0.1-0.2,0.2-0.3,0.3l-0.1-0.1c0.1-0.2,0.2-0.3,0.4-0.4
		c0.1-0.1,0.3-0.1,0.5-0.1c0.3,0,0.6,0.1,0.7,0.4c0.2,0.3,0.3,0.7,0.3,1.1L200,173.5z M199.8,172.3h-0.4c-0.1,0-0.3,0-0.4,0
		c-0.1,0-0.3,0.1-0.4,0.2c-0.1,0.1-0.2,0.2-0.3,0.3c-0.1,0.2-0.1,0.4-0.1,0.6c0,0.1,0,0.3,0.1,0.4c0,0.1,0.1,0.2,0.2,0.3
		c0.1,0.1,0.1,0.1,0.2,0.2c0.1,0,0.2,0,0.2,0.1c0.2,0,0.3,0,0.5-0.2c0.1-0.1,0.2-0.2,0.3-0.4s0.1-0.4,0.1-0.6c0-0.2,0-0.4,0.1-0.6
		v-0.3H199.8z"/>
	<path d="M201,172.4v-0.2h1v0.2H201z"/>
	<path d="M204.4,173.4c0,0.3-0.1,0.6-0.2,0.8c-0.2,0.2-0.4,0.3-0.7,0.3c-0.4,0-0.8-0.2-0.9-0.6l0.1-0.1c0.1,0.4,0.4,0.6,0.8,0.6
		c0.2,0,0.4-0.1,0.5-0.3s0.2-0.4,0.2-0.7c0-0.1,0-0.3-0.1-0.4c-0.1-0.2-0.3-0.3-0.5-0.4l-0.3-0.1c-0.1,0-0.2-0.1-0.3-0.1
		c-0.1-0.1-0.2-0.1-0.2-0.2c-0.1-0.1-0.1-0.2-0.1-0.3s0-0.3,0-0.4c0-0.1,0-0.3,0.1-0.4c0-0.1,0.1-0.2,0.2-0.3
		c0.1-0.1,0.2-0.2,0.3-0.2c0.1-0.1,0.2-0.1,0.3-0.1c0.2,0,0.4,0,0.5,0.1s0.2,0.2,0.3,0.4l-0.1,0.1c-0.1-0.3-0.4-0.5-0.7-0.5
		c-0.2,0-0.4,0.1-0.5,0.2c-0.1,0.2-0.2,0.4-0.2,0.6c0,0.1,0,0.2,0.1,0.3c0,0.1,0.1,0.2,0.1,0.2c0.1,0.1,0.1,0.1,0.2,0.2
		c0.1,0,0.2,0.1,0.3,0.1l0.3,0.1c0.1,0.1,0.2,0.1,0.3,0.2c0.1,0.1,0.1,0.2,0.2,0.3C204.5,173.1,204.5,173.3,204.4,173.4z"/>
	<path d="M205.4,172.4c0,0.3,0,0.5,0.1,0.8c0,0.2,0.1,0.4,0.2,0.6c0.1,0.2,0.2,0.3,0.3,0.4c0.1,0.1,0.3,0.1,0.5,0.1s0.4-0.1,0.5-0.2
		c0.1-0.1,0.2-0.3,0.3-0.5l0.1,0.1c-0.1,0.2-0.2,0.4-0.4,0.5c-0.2,0.2-0.4,0.2-0.6,0.2c-0.2,0-0.4,0-0.5-0.1
		c-0.2-0.1-0.3-0.2-0.4-0.4c-0.1-0.2-0.2-0.4-0.2-0.6c-0.1-0.3-0.1-0.6-0.1-0.9c0-0.3,0-0.5,0.1-0.8c0-0.2,0.1-0.5,0.2-0.7
		c0.1-0.2,0.2-0.3,0.4-0.4c0.2-0.1,0.3-0.2,0.5-0.2s0.4,0,0.5,0.1s0.3,0.2,0.3,0.4c0.1,0.2,0.2,0.4,0.2,0.6c0,0.2,0.1,0.5,0.1,0.7
		v0.2L205.4,172.4L205.4,172.4z M207.4,172.3c0-0.2,0-0.5-0.1-0.7c0-0.2-0.1-0.4-0.2-0.5c-0.1-0.1-0.2-0.3-0.3-0.4
		c-0.1-0.1-0.3-0.1-0.4-0.1c-0.2,0-0.4,0.1-0.5,0.2c-0.1,0.1-0.2,0.3-0.3,0.4c-0.1,0.2-0.1,0.4-0.2,0.6c0,0.2,0,0.3-0.1,0.5H207.4z"
		/>
	<path d="M208.8,171.5c0-0.3,0.2-0.6,0.4-0.8s0.4-0.3,0.7-0.3c0.2,0,0.3,0,0.5,0.1c0.1,0.1,0.2,0.2,0.3,0.4s0.1,0.3,0.1,0.5
		s0,0.3,0,0.5v2.6h-0.2v-2.6c0-0.1,0-0.3,0-0.4c0-0.1,0-0.3-0.1-0.4c-0.1-0.1-0.1-0.2-0.2-0.3c-0.1-0.1-0.3-0.1-0.4-0.1
		c-0.2,0-0.3,0.1-0.4,0.1c-0.1,0.1-0.2,0.2-0.3,0.4s-0.1,0.3-0.2,0.5c0,0.2-0.1,0.4-0.1,0.6v2.2h-0.2v-3.1c0-0.1,0-0.2,0-0.3
		s0-0.2,0-0.3s0-0.1,0-0.2h0.2c0,0.1,0,0.1,0,0.2c0,0.1,0,0.2,0,0.3L208.8,171.5L208.8,171.5z"/>
	<path d="M213.8,173.5c0,0.1,0,0.3,0,0.5s0,0.3,0,0.4h-0.2c0,0,0-0.1,0-0.2c0-0.1,0-0.2,0-0.3s0-0.2,0-0.2c0-0.1,0-0.1,0-0.2l0,0
		c0,0.3-0.2,0.6-0.4,0.8s-0.4,0.3-0.6,0.2c-0.1,0-0.2,0-0.3-0.1c-0.1,0-0.2-0.1-0.3-0.2c-0.1-0.1-0.2-0.2-0.2-0.4
		c-0.1-0.2-0.1-0.3-0.1-0.5s0-0.5,0.1-0.7s0.2-0.3,0.4-0.4c0.1-0.1,0.3-0.1,0.5-0.2c0.1,0,0.3,0,0.4,0h0.4v-0.3
		c0-0.3-0.1-0.7-0.2-0.9c-0.2-0.3-0.7-0.4-1-0.2c-0.1,0.1-0.3,0.2-0.3,0.3l-0.1-0.1c0.1-0.2,0.2-0.3,0.4-0.4
		c0.1-0.1,0.3-0.1,0.5-0.1c0.3,0,0.6,0.1,0.7,0.4c0.2,0.3,0.3,0.7,0.3,1.1L213.8,173.5z M213.6,172.3h-0.4c-0.1,0-0.3,0-0.4,0
		c-0.1,0-0.3,0.1-0.4,0.2c-0.1,0.1-0.2,0.2-0.3,0.3c-0.1,0.2-0.1,0.4-0.1,0.6c0,0.1,0,0.3,0.1,0.4c0,0.1,0.1,0.2,0.2,0.3
		c0.1,0.1,0.1,0.1,0.2,0.2c0.1,0,0.2,0,0.2,0.1c0.2,0,0.3,0,0.5-0.2c0.1-0.1,0.2-0.2,0.3-0.4s0.1-0.4,0.1-0.6c0-0.2,0-0.4,0-0.6
		L213.6,172.3z"/>
	<path d="M160,179.4c0,0.3,0,0.5,0.1,0.8c0,0.2,0.1,0.4,0.2,0.6c0.1,0.2,0.2,0.3,0.3,0.4c0.1,0.1,0.3,0.1,0.5,0.1s0.4-0.1,0.5-0.2
		c0.1-0.1,0.2-0.3,0.3-0.5l0.1,0.1c-0.1,0.2-0.2,0.4-0.4,0.5c-0.2,0.2-0.4,0.2-0.6,0.2c-0.2,0-0.4,0-0.5-0.1
		c-0.2-0.1-0.3-0.2-0.4-0.4c-0.1-0.2-0.2-0.4-0.2-0.6c-0.1-0.3-0.1-0.6-0.1-0.9c0-0.3,0-0.5,0.1-0.8c0-0.2,0.1-0.5,0.2-0.7
		c0.1-0.2,0.2-0.3,0.4-0.4c0.1-0.1,0.3-0.2,0.5-0.2s0.4,0,0.5,0.1s0.3,0.2,0.3,0.4c0.1,0.2,0.2,0.4,0.2,0.6c0,0.2,0.1,0.5,0.1,0.7
		v0.2L160,179.4L160,179.4z M162,179.3c0-0.2,0-0.5-0.1-0.7c0-0.2-0.1-0.4-0.2-0.5c-0.1-0.1-0.2-0.3-0.3-0.4
		c-0.1-0.1-0.3-0.1-0.4-0.1c-0.2,0-0.4,0.1-0.5,0.2c-0.1,0.1-0.2,0.3-0.3,0.4c-0.1,0.2-0.1,0.4-0.2,0.6c0,0.2-0.1,0.3-0.1,0.5H162z"
		/>
	<path d="M164.6,181.4v-6h0.2v6H164.6z"/>
	<path d="M168.3,179.5c0,0.3,0,0.6-0.1,0.8c0,0.2-0.1,0.4-0.2,0.6c-0.1,0.2-0.2,0.3-0.4,0.4c-0.3,0.2-0.7,0.2-1,0
		c-0.2-0.1-0.3-0.3-0.4-0.4c-0.1-0.2-0.2-0.4-0.2-0.6c-0.1-0.5-0.1-1.1,0-1.7c0-0.2,0.1-0.4,0.2-0.6c0.1-0.2,0.2-0.3,0.4-0.4
		c0.2-0.1,0.3-0.2,0.5-0.1c0.2,0,0.4,0.1,0.5,0.1c0.2,0.1,0.3,0.3,0.4,0.4c0.1,0.2,0.2,0.4,0.2,0.6
		C168.3,178.9,168.3,179.2,168.3,179.5z M168.2,179.5c0-0.3,0-0.5-0.1-0.8c0-0.2-0.1-0.4-0.2-0.6c-0.1-0.2-0.2-0.3-0.3-0.4
		c-0.1-0.1-0.3-0.2-0.4-0.1c-0.2,0-0.3,0.1-0.4,0.1c-0.1,0.1-0.3,0.2-0.3,0.4c-0.1,0.2-0.2,0.4-0.2,0.6c0,0.3-0.1,0.5-0.1,0.8
		s0,0.5,0.1,0.8c0,0.2,0.1,0.4,0.2,0.6c0.1,0.2,0.2,0.3,0.3,0.4c0.1,0.1,0.3,0.2,0.4,0.1c0.2,0,0.3,0,0.4-0.1
		c0.1-0.1,0.3-0.2,0.3-0.4c0.1-0.2,0.2-0.4,0.2-0.6C168.1,180,168.2,179.7,168.2,179.5L168.2,179.5z"/>
	<path d="M170,181.4c-0.1,0-0.2,0-0.3-0.1c-0.1,0-0.1-0.1-0.2-0.2c0-0.1-0.1-0.2-0.1-0.3s0-0.2,0-0.4v-2.9h-0.5v-0.2h0.5v-1.1h0.2
		v1.1h0.7v0.2h-0.7v2.9c0,0.2,0,0.4,0.1,0.6c0.1,0.1,0.2,0.2,0.3,0.2h0.2c0.1,0,0.1,0,0.1-0.1v0.1
		C170.2,181.4,170.1,181.4,170,181.4z"/>
	<path d="M171.1,179.4c0,0.3,0,0.5,0.1,0.8c0,0.2,0.1,0.4,0.2,0.6c0.1,0.2,0.2,0.3,0.3,0.4c0.1,0.1,0.3,0.1,0.5,0.1s0.4-0.1,0.5-0.2
		c0.1-0.1,0.2-0.3,0.3-0.5l0.1,0.1c-0.1,0.2-0.2,0.4-0.4,0.5c-0.2,0.2-0.4,0.2-0.6,0.2c-0.2,0-0.4,0-0.5-0.1
		c-0.2-0.1-0.3-0.2-0.4-0.4c-0.1-0.2-0.2-0.4-0.2-0.6c-0.1-0.3-0.1-0.6-0.1-0.9c0-0.3,0-0.5,0.1-0.8c0-0.2,0.1-0.5,0.2-0.7
		c0.1-0.2,0.2-0.3,0.4-0.4c0.2-0.1,0.3-0.2,0.5-0.2s0.4,0,0.5,0.1s0.3,0.2,0.4,0.4c0.1,0.2,0.2,0.4,0.2,0.6c0,0.2,0,0.5,0.1,0.7v0.2
		L171.1,179.4L171.1,179.4z M173.1,179.3c0-0.2,0-0.5-0.1-0.7c0-0.2-0.1-0.4-0.2-0.5c-0.1-0.1-0.2-0.3-0.3-0.4
		c-0.1-0.1-0.3-0.1-0.4-0.1c-0.2,0-0.4,0.1-0.5,0.2c-0.1,0.1-0.3,0.3-0.3,0.4c-0.1,0.2-0.1,0.4-0.2,0.6c0,0.2,0,0.3,0,0.5H173.1z"/>
	<path d="M174.3,178.3c0-0.1,0-0.2,0-0.3v-0.3c0-0.1,0-0.1,0-0.2h0.2c0,0.1,0,0.1,0,0.2c0,0.1,0,0.2,0,0.3v0.5l0,0
		c0-0.3,0.2-0.6,0.4-0.8c0.1-0.2,0.3-0.2,0.5-0.2h0.1v0.2h-0.1c-0.1,0-0.3,0.1-0.4,0.2c-0.1,0.1-0.2,0.3-0.3,0.4
		c-0.1,0.2-0.1,0.4-0.2,0.6c0,0.2-0.1,0.4-0.1,0.6v2h-0.2v-2.9C174.3,178.4,174.3,178.4,174.3,178.3z"/>
	<path d="M176.2,176.3c0,0-0.1,0-0.1-0.1c0,0-0.1-0.1-0.1-0.2c0-0.1,0-0.1,0.1-0.1c0,0,0.1,0,0.1-0.1c0,0,0.1,0,0.1,0.1l0.1,0.1
		c0,0.1,0,0.1-0.1,0.2C176.3,176.3,176.3,176.3,176.2,176.3z M176.2,181.4v-3.9h0.2v3.9H176.2z"/>
	<path d="M179.4,180.5c0,0.1,0,0.3,0,0.5s0,0.3,0,0.4h-0.2c0,0,0-0.1,0-0.2s0-0.2,0-0.3s0-0.2,0-0.2v-0.2l0,0c0,0.3-0.2,0.6-0.4,0.8
		s-0.4,0.2-0.6,0.2c-0.1,0-0.2,0-0.3-0.1c-0.1,0-0.2-0.1-0.3-0.2c-0.1-0.1-0.2-0.2-0.2-0.4c-0.1-0.2-0.1-0.3-0.1-0.5s0-0.5,0.1-0.7
		s0.2-0.3,0.4-0.4c0.1-0.1,0.3-0.1,0.5-0.2c0.1,0,0.3,0,0.4,0h0.4v-0.3c0-0.3-0.1-0.7-0.2-0.9c-0.1-0.2-0.4-0.3-0.6-0.3
		c-0.2,0-0.3,0-0.4,0.1c-0.1,0.1-0.2,0.2-0.3,0.3l-0.1-0.1c0.1-0.2,0.2-0.3,0.4-0.4c0.1-0.1,0.3-0.1,0.5-0.1c0.3,0,0.6,0.1,0.7,0.4
		c0.2,0.3,0.3,0.7,0.3,1.1L179.4,180.5z M179.2,179.3h-0.4c-0.1,0-0.3,0-0.4,0c-0.1,0-0.3,0.1-0.4,0.2c-0.1,0.1-0.2,0.2-0.3,0.3
		c-0.1,0.2-0.1,0.4-0.1,0.6c0,0.1,0,0.3,0.1,0.4c0,0.1,0.1,0.2,0.2,0.3c0.1,0.1,0.1,0.1,0.2,0.2c0.1,0,0.2,0,0.2,0.1
		c0.2,0,0.3-0.1,0.5-0.2c0.1-0.1,0.2-0.2,0.3-0.4s0.1-0.4,0.2-0.6c0-0.2,0-0.4,0-0.6L179.2,179.3z"/>
	<path d="M182.4,178.5c0-0.3,0.2-0.6,0.4-0.8s0.4-0.3,0.7-0.3c0.2,0,0.4,0,0.5,0.1s0.2,0.2,0.3,0.4c0.1,0.1,0.1,0.3,0.1,0.5
		s0,0.3,0,0.5v2.6h-0.2v-2.6c0-0.1,0-0.3,0-0.4c0-0.1,0-0.3-0.1-0.4c0-0.1-0.1-0.2-0.2-0.3c-0.1-0.1-0.3-0.1-0.4-0.1
		c-0.2,0-0.3,0-0.4,0.1c-0.1,0.1-0.2,0.2-0.3,0.4s-0.2,0.3-0.2,0.5s-0.1,0.4-0.1,0.6v2.2h-0.2v-3.1c0-0.1,0-0.2,0-0.3s0-0.2,0-0.3
		s0-0.1,0-0.2h0.2c0,0.1,0,0.1,0,0.2s0,0.2,0,0.3L182.4,178.5L182.4,178.5z"/>
	<path d="M187.4,180.5c0,0.1,0,0.3,0,0.5s0,0.3,0,0.4h-0.2c0,0,0-0.1,0-0.2c0-0.1,0-0.2,0-0.3s0-0.2,0-0.2v-0.2l0,0
		c0,0.3-0.2,0.6-0.4,0.8s-0.4,0.3-0.6,0.2c-0.1,0-0.2,0-0.3-0.1c-0.1,0-0.2-0.1-0.3-0.2c-0.1-0.1-0.2-0.2-0.2-0.4
		c-0.1-0.2-0.1-0.3-0.1-0.5s0-0.5,0.1-0.7s0.2-0.3,0.4-0.4c0.1-0.1,0.3-0.1,0.5-0.2c0.1,0,0.3,0,0.4,0h0.4v-0.3
		c0-0.3-0.1-0.7-0.2-0.9c-0.1-0.2-0.4-0.3-0.6-0.3c-0.2,0-0.3,0-0.4,0.1c-0.1,0.1-0.2,0.2-0.3,0.3l-0.1-0.1c0.1-0.2,0.2-0.3,0.4-0.4
		c0.1-0.1,0.3-0.1,0.5-0.1c0.3,0,0.6,0.1,0.7,0.4c0.2,0.3,0.3,0.7,0.3,1.1L187.4,180.5z M187.2,179.3h-0.4c-0.1,0-0.3,0-0.4,0
		c-0.1,0-0.3,0.1-0.4,0.2c-0.1,0.1-0.2,0.2-0.3,0.3c-0.1,0.2-0.1,0.4-0.1,0.6c0,0.1,0,0.3,0.1,0.4c0,0.1,0.1,0.2,0.2,0.3
		c0.1,0.1,0.1,0.1,0.2,0.2c0.1,0,0.2,0,0.2,0.1c0.2,0,0.3,0,0.5-0.2c0.1-0.1,0.2-0.2,0.3-0.4s0.1-0.4,0.2-0.6c0-0.2,0-0.4,0-0.6
		L187.2,179.3z"/>
	<path d="M190.4,181c-0.2,0.3-0.5,0.5-0.8,0.5c-0.2,0-0.4,0-0.5-0.1c-0.2-0.1-0.3-0.3-0.4-0.4c-0.1-0.2-0.2-0.4-0.2-0.6
		c-0.1-0.5-0.1-1.1,0-1.7c0-0.2,0.1-0.4,0.2-0.6c0.1-0.2,0.2-0.3,0.4-0.4c0.2-0.1,0.3-0.2,0.5-0.1c0.2,0,0.3,0,0.5,0.1
		c0.1,0.1,0.2,0.2,0.3,0.3l-0.1,0.1c-0.1-0.1-0.2-0.2-0.3-0.3s-0.3-0.1-0.4-0.1c-0.2,0-0.3,0.1-0.4,0.1c-0.1,0.1-0.2,0.3-0.3,0.4
		c-0.1,0.2-0.1,0.4-0.2,0.6c0,0.3-0.1,0.5-0.1,0.8s0,0.5,0.1,0.8c0,0.2,0.1,0.4,0.2,0.6c0.1,0.2,0.2,0.3,0.3,0.4
		c0.1,0.1,0.3,0.2,0.4,0.1c0.1,0,0.3,0,0.4-0.1c0.1-0.1,0.2-0.2,0.3-0.3L190.4,181z"/>
	<path d="M191.3,176.3c0,0-0.1,0-0.1-0.1s0-0.1,0-0.2v-0.1c0.1-0.1,0.2-0.1,0.3,0l0.1,0.1c0,0.1,0,0.1-0.1,0.2
		C191.3,176.3,191.3,176.3,191.3,176.3z M191.2,181.4v-3.9h0.2v3.9H191.2z"/>
	<path d="M194.9,179.5c0,0.3,0,0.6-0.1,0.8c0,0.2-0.1,0.4-0.2,0.6c-0.1,0.2-0.2,0.3-0.4,0.4c-0.2,0.1-0.3,0.2-0.5,0.1
		c-0.2,0-0.4,0-0.5-0.1c-0.2-0.1-0.3-0.3-0.4-0.4c-0.1-0.2-0.2-0.4-0.2-0.6c-0.1-0.3-0.1-0.6-0.1-0.8c0-0.3,0-0.6,0.1-0.8
		c0-0.2,0.1-0.4,0.2-0.6c0.1-0.2,0.2-0.3,0.4-0.4c0.3-0.2,0.7-0.2,1,0c0.2,0.1,0.3,0.3,0.4,0.4c0.1,0.2,0.2,0.4,0.2,0.6
		C194.8,178.9,194.9,179.2,194.9,179.5z M194.7,179.5c0-0.3,0-0.5-0.1-0.8c0-0.2-0.1-0.4-0.2-0.6c-0.1-0.2-0.2-0.3-0.3-0.4
		c-0.1-0.1-0.3-0.2-0.4-0.1c-0.2,0-0.3,0.1-0.4,0.1c-0.1,0.1-0.2,0.2-0.3,0.4s-0.2,0.4-0.2,0.6c0,0.3-0.1,0.5-0.1,0.8s0,0.5,0.1,0.8
		c0,0.2,0.1,0.4,0.2,0.6c0.1,0.2,0.2,0.3,0.3,0.4c0.3,0.2,0.6,0.2,0.9,0c0.1-0.1,0.2-0.2,0.3-0.4s0.2-0.4,0.2-0.6
		C194.7,180,194.7,179.7,194.7,179.5L194.7,179.5z"/>
	<path d="M196.2,178.5c0-0.3,0.2-0.6,0.4-0.8s0.4-0.3,0.7-0.3c0.2,0,0.3,0,0.5,0.1c0.1,0.1,0.2,0.2,0.3,0.4s0.1,0.3,0.1,0.5
		s0,0.3,0,0.5v2.6H198v-2.6c0-0.1,0-0.3,0-0.4c0-0.1,0-0.3-0.1-0.4c-0.1-0.1-0.1-0.2-0.2-0.3c-0.1-0.1-0.3-0.1-0.4-0.1
		c-0.2,0-0.3,0.1-0.4,0.1c-0.1,0.1-0.2,0.2-0.3,0.4s-0.1,0.3-0.2,0.5c0,0.2-0.1,0.4-0.1,0.6v2.2H196v-3.1c0-0.1,0-0.2,0-0.3
		s0-0.2,0-0.3s0-0.1,0-0.2h0.2c0,0.1,0,0.1,0,0.2c0,0.1,0,0.2,0,0.3V178.5L196.2,178.5z"/>
	<path d="M201.2,180.5c0,0.1,0,0.3,0,0.5s0,0.3,0,0.4H201c0,0,0-0.1,0-0.2c0-0.1,0-0.2,0-0.3s0-0.2,0-0.2c0-0.1,0-0.1,0-0.2l0,0
		c0,0.3-0.2,0.6-0.4,0.8s-0.4,0.3-0.6,0.2c-0.1,0-0.2,0-0.3-0.1c-0.1,0-0.2-0.1-0.3-0.2c-0.1-0.1-0.2-0.2-0.2-0.4
		c-0.1-0.2-0.1-0.3-0.1-0.5s0-0.5,0.1-0.7s0.2-0.3,0.4-0.4c0.1-0.1,0.3-0.2,0.5-0.2c0.1,0,0.3,0,0.4,0h0.4v-0.3
		c0-0.3-0.1-0.7-0.2-0.9c-0.1-0.2-0.4-0.3-0.6-0.3c-0.2,0-0.3,0-0.4,0.1c-0.1,0.1-0.3,0.2-0.3,0.3l-0.1-0.1c0.1-0.2,0.2-0.3,0.4-0.4
		c0.1-0.1,0.3-0.1,0.5-0.1c0.3,0,0.6,0.1,0.7,0.4c0.2,0.3,0.3,0.7,0.3,1.1L201.2,180.5z M201,179.3h-0.4c-0.1,0-0.3,0-0.4,0
		c-0.1,0-0.3,0.1-0.4,0.2c-0.1,0.1-0.2,0.2-0.3,0.3c-0.1,0.2-0.1,0.4-0.1,0.6c0,0.1,0,0.3,0.1,0.4c0,0.1,0.1,0.2,0.2,0.3
		c0.1,0.1,0.1,0.1,0.2,0.2c0.1,0,0.2,0,0.2,0.1c0.2,0,0.3,0,0.5-0.2c0.1-0.1,0.2-0.2,0.3-0.4s0.1-0.4,0.1-0.6c0-0.2,0-0.4,0.1-0.6
		L201,179.3z"/>
	<path d="M202.4,181.4v-6h0.2v6H202.4z"/>
	<path class="st16" d="M111.6,154.2V165h-10.8c-2.9,0-5.2-2.3-5.2-5.2s2.3-5.2,5.2-5.2l0,0h0.4v-0.4c-0.1-2.9,2.1-5.3,5-5.4
		c2.9-0.1,5.3,2.1,5.4,5C111.6,153.9,111.6,154.1,111.6,154.2L111.6,154.2z"/>
	<path class="st17" d="M112,154.2V165h10.8c2.9,0,5.2-2.3,5.2-5.2s-2.3-5.2-5.2-5.2l0,0h-0.4v-0.4c0.1-2.9-2.1-5.3-5-5.4
		c-2.9-0.1-5.3,2.1-5.4,5C112,153.9,112,154.1,112,154.2L112,154.2z"/>
	<path class="st17" d="M111.6,176.3v-10.8h-10.8c-2.9,0-5.2,2.3-5.2,5.2s2.3,5.2,5.2,5.2l0,0h0.4v0.4c-0.1,2.9,2.1,5.3,5,5.4
		c2.9,0.1,5.3-2.1,5.4-5C111.6,176.6,111.6,176.5,111.6,176.3L111.6,176.3z"/>
	<path class="st16" d="M112,176.3v-10.8h10.8c2.9,0,5.2,2.3,5.2,5.2s-2.3,5.2-5.2,5.2h-0.4v0.4c0.1,2.9-2.1,5.3-5,5.4
		c-2.9,0.1-5.3-2.1-5.4-5C112,176.6,112,176.5,112,176.3L112,176.3z"/>
</g>
</svg>
