<svg xmlns="http://www.w3.org/2000/svg" viewBox="0 0 33.5 33.57"><defs><style>.a{fill:#1a793e;}.a,.b{stroke:#fff;stroke-miterlimit:10;}.b{fill:#b2cfb3;}</style></defs><title>icone mega de hoje</title><path class="a" d="M16.51,5.71v10.8H5.71a5.22,5.22,0,0,1,0-10.43h.37V5.71a5.22,5.22,0,0,1,10.43,0Z"/><path class="b" d="M17,5.71v10.8h10.8a5.22,5.22,0,0,0,0-10.43h-.37V5.71A5.22,5.22,0,0,0,17,5.71Z"/><path class="b" d="M16.51,27.86V17.06H5.71a5.22,5.22,0,0,0,0,10.43h.37v.37a5.22,5.22,0,0,0,10.43,0Z"/><path class="a" d="M17,27.86V17.06h10.8a5.22,5.22,0,0,1,0,10.43h-.37v.37a5.22,5.22,0,0,1-10.43,0Z"/></svg>